<?xml version="1.0" encoding="utf-8"?>
<!-- Generator: Adobe Illustrator 16.0.0, SVG Export Plug-In . SVG Version: 6.00 Build 0)  -->
<!DOCTYPE svg PUBLIC "-//W3C//DTD SVG 1.1//EN" "http://www.w3.org/Graphics/SVG/1.1/DTD/svg11.dtd">
<svg version="1.1" id="icons" xmlns="http://www.w3.org/2000/svg" xmlns:xlink="http://www.w3.org/1999/xlink" x="0px" y="0px"
	 width="20px" height="60px" viewBox="0 0 20 60" enable-background="new 0 0 20 60" xml:space="preserve">
<path id="mail" fill="#FFFFFF" d="M19.5,3.5C19.8,3.8,20,4.2,20,4.7v10.6c0,0.5-0.2,0.9-0.5,1.2c-0.3,0.3-0.7,0.5-1.2,0.5H1.7
	c-0.5,0-0.9-0.2-1.2-0.5C0.2,16.2,0,15.8,0,15.3V4.7c0-0.5,0.2-0.9,0.5-1.2C0.8,3.2,1.2,3,1.7,3h16.6C18.8,3,19.2,3.2,19.5,3.5z
	 M19.2,4.7c0-0.2-0.1-0.4-0.3-0.6c-0.2-0.2-0.4-0.2-0.6-0.2H1.7C1.4,3.9,1.2,4,1.1,4.1C0.9,4.3,0.8,4.5,0.8,4.7v10.6
	c0,0.2,0.1,0.4,0.3,0.6c0.2,0.2,0.4,0.2,0.6,0.2h16.6c0.2,0,0.4-0.1,0.6-0.2c0.2-0.2,0.3-0.4,0.3-0.6V4.7z M6.6,11.2
	c0.2,0.3,0.1,0.5-0.1,0.6l-3.8,2.6c-0.1,0.1-0.2,0.1-0.2,0.1c-0.2,0-0.3-0.1-0.4-0.2C2,14,2,13.8,2.3,13.6L6,11.1
	C6.3,10.9,6.5,11,6.6,11.2z M17.3,7.5L10,12.4L2.7,7.5C2.5,7.4,2.4,7.2,2.6,7c0.2-0.3,0.3-0.3,0.5-0.2l6.9,4.6l6.9-4.6
	c0.2-0.2,0.4-0.1,0.5,0.2C17.6,7.2,17.5,7.4,17.3,7.5z M17.7,13.6c0.2,0.1,0.3,0.3,0.1,0.6c-0.1,0.1-0.2,0.2-0.4,0.2
	c-0.1,0-0.1,0-0.2-0.1l-3.8-2.6c-0.2-0.1-0.3-0.3-0.1-0.6c0.1-0.2,0.3-0.3,0.6-0.1L17.7,13.6z"/>
<g id="Check">
	<path id="line-circle-check" fill="#FFFFFF" d="M17.1,22.9c-2-2-4.3-2.9-7.1-2.9c-2.8,0-5.1,1-7.1,2.9S0,27.2,0,30s1,5.1,2.9,7.1
		S7.2,40,10,40c2.8,0,5.1-1,7.1-2.9S20,32.8,20,30S19,24.9,17.1,22.9z M16.5,36.5c-1.8,1.8-4,2.7-6.5,2.7c-2.5,0-4.7-0.9-6.5-2.7
		s-2.7-4-2.7-6.5s0.9-4.7,2.7-6.5s4-2.7,6.5-2.7c2.5,0,4.7,0.9,6.5,2.7s2.7,4,2.7,6.5S18.3,34.7,16.5,36.5z"/>
	<polygon id="line-ckeck" fill="#FFFFFF" points="8.3,32.5 6.1,30.3 5.5,30.9 8.3,33.7 15.3,27.1 14.7,26.5 	"/>
</g>
<g id="error">
	<path id="line-circle-x" fill="#FFFFFF" d="M17.1,42.9c-2-2-4.3-2.9-7.1-2.9c-2.8,0-5.1,1-7.1,2.9S0,47.2,0,50c0,2.8,1,5.1,2.9,7.1
		S7.2,60,10,60c2.8,0,5.1-1,7.1-2.9S20,52.8,20,50C20,47.2,19,44.9,17.1,42.9z M16.5,56.5c-1.8,1.8-4,2.7-6.5,2.7
		c-2.5,0-4.7-0.9-6.5-2.7s-2.7-4-2.7-6.5c0-2.5,0.9-4.7,2.7-6.5s4-2.7,6.5-2.7c2.5,0,4.7,0.9,6.5,2.7s2.7,4,2.7,6.5
		C19.2,52.5,18.3,54.7,16.5,56.5z"/>
	<polygon id="line-x" fill="#FFFFFF" points="13.5,46 10,49.4 6.5,46 6,46.5 9.4,50 6,53.5 6.5,54 10,50.6 13.5,54 14,53.5 10.6,50 
		14,46.5 	"/>
</g>
</svg>
