<?xml version="1.0" encoding="utf-8"?>
<!-- Generator: Adobe Illustrator 16.0.0, SVG Export Plug-In . SVG Version: 6.00 Build 0)  -->
<!DOCTYPE svg PUBLIC "-//W3C//DTD SVG 1.1//EN" "http://www.w3.org/Graphics/SVG/1.1/DTD/svg11.dtd">
<svg version="1.1" id="icons" xmlns="http://www.w3.org/2000/svg" xmlns:xlink="http://www.w3.org/1999/xlink" x="0px" y="0px"
	 width="48px" height="48px" viewBox="0 0 48 48" enable-background="new 0 0 48 48" xml:space="preserve">
<g id="Data_integration" display="none">
	<path display="inline" fill="#323A45" d="M44,11v26c0,2.6-1.9,4.7-5.8,6.4C34.4,45.1,29.6,46,24,46s-10.4-0.9-14.2-2.6
		C5.9,41.7,4,39.6,4,37V11c0-2.5,1.9-4.6,5.8-6.4C13.6,2.9,18.4,2,24,2s10.4,0.9,14.2,2.6C42.1,6.4,44,8.5,44,11z M6,11
		c0,2,1.9,3.7,5.6,5c3.8,1.3,7.9,2,12.4,2s8.6-0.7,12.4-2c3.8-1.3,5.6-3,5.6-5c0-2-1.9-3.7-5.6-5c-3.8-1.3-7.9-2-12.4-2
		s-8.6,0.7-12.4,2C7.8,7.3,6,9,6,11z M42,15c-3.5,3.3-9.5,5-18,5c-8.5,0-14.5-1.7-18-5v4c0,2,1.9,3.7,5.6,5c3.8,1.3,7.9,2,12.4,2
		s8.6-0.7,12.4-2c3.8-1.3,5.6-3,5.6-5V15z M42,23c-1.6,1.5-4.1,2.7-7.3,3.7C31.5,27.6,27.9,28,24,28s-7.5-0.5-10.8-1.4
		C10,25.7,7.6,24.5,6,23V28c0,2,1.9,3.7,5.6,5c3.8,1.3,7.9,2,12.4,2s8.6-0.7,12.4-2c3.8-1.3,5.6-3,5.6-5V23z M42,37V32
		c-1.6,1.5-4.1,2.7-7.3,3.7C31.5,36.5,27.9,37,24,37s-7.5-0.5-10.8-1.4C10,34.7,7.6,33.5,6,32V37c0,2,1.9,3.7,5.6,5
		c3.8,1.3,7.9,2,12.4,2s8.6-0.7,12.4-2C40.2,40.7,42,39,42,37z"/>
</g>
<g id="Predictive_analytics" display="none">
	<path display="inline" fill="#323A45" d="M47,6.1l-0.9,2.5c-0.6,1.7-1.7,3.5-3.1,5.2c-1.4,1.7-2.9,2.5-4.5,2.5
		c-1.2,0-2.5-0.5-3.7-1.6L32.4,17c3.1,3.4,4.6,7.4,4.6,12c0,4.6-1.5,8.6-4.6,12h0.1l4.2,4.3c0.5,0.5,0.5,1,0,1.4
		c-0.2,0.2-0.4,0.3-0.7,0.3c-0.3,0-0.6-0.1-0.7-0.3l-4.2-4.3H31c-3.5,3.1-7.5,4.6-12,4.6c-4.5,0-8.5-1.5-12-4.6l-4.2,4.3
		C2.6,46.9,2.4,47,2.1,47c-0.2,0-0.5-0.1-0.7-0.3c-0.5-0.4-0.5-0.9,0-1.4L5.7,41c-3.1-3.5-4.6-7.5-4.6-12c0-5,1.8-9.2,5.3-12.7
		C9.9,12.8,14.1,11,19,11c4.5,0,8.5,1.5,12,4.6l2.3-2.3c-0.9-1.1-1.4-2.1-1.5-3.1c-0.1-1,0-1.9,0.4-2.7c0.4-0.8,1-1.5,1.9-2.2
		C35,4.5,35.8,4,36.6,3.5c0.8-0.5,1.7-0.9,2.6-1.4c0.9-0.4,1.6-0.7,2-0.8C41.6,1.2,41.9,1.1,42,1v5.1H47z M31,18.4l-2.8,2.8
		c1.9,2.2,2.8,4.8,2.8,7.8c0,3.3-1.2,6.1-3.5,8.5C25.2,39.8,22.3,41,19,41s-6.1-1.2-8.5-3.5c-2.3-2.3-3.5-5.2-3.5-8.5
		c0-3.3,1.2-6.1,3.5-8.5c2.3-2.3,5.2-3.5,8.5-3.5c3,0,5.6,0.9,7.8,2.8l2.8-2.8c-3.1-2.7-6.6-4-10.6-4c-4.4,0-8.1,1.6-11.2,4.7
		C4.7,20.8,3.2,24.6,3.2,29c0,4.4,1.6,8.2,4.7,11.3C10.9,43.5,14.7,45,19,45c4.4,0,8.2-1.6,11.3-4.7C33.5,37.1,35,33.4,35,29
		C35,25,33.7,21.4,31,18.4z M25.4,21.2c-1.9-1.5-4-2.2-6.4-2.2c-2.7,0-5.1,1-7,3S9.1,26.3,9.1,29c0,2.7,1,5.1,2.9,7.1s4.3,3,7,3
		s5.1-1,7.1-3c2-2,2.9-4.3,2.9-7.1c0-2.4-0.7-4.5-2.2-6.3l-2.9,2.8c0.7,0.9,1.1,2.1,1.1,3.5c0,1.6-0.6,3-1.7,4.2
		C22.1,34.4,20.7,35,19,35c-1.6,0-3-0.6-4.2-1.8c-1.2-1.2-1.8-2.6-1.8-4.2c0-1.6,0.6-3,1.8-4.2C16,23.6,17.4,23,19,23
		c1.4,0,2.5,0.4,3.5,1.1L25.4,21.2z M22.5,27L21,28.5v0.2c0.1,0.1,0.1,0.2,0.1,0.3c0,0.6-0.2,1-0.6,1.4C20.1,30.8,19.6,31,19,31
		c-0.5,0-1-0.2-1.4-0.6c-0.4-0.4-0.6-0.8-0.6-1.4s0.2-1,0.6-1.4c0.4-0.4,0.9-0.6,1.4-0.6h0.6l1.5-1.5C20.4,25.2,19.7,25,19,25
		c-1.1,0-2,0.4-2.8,1.2c-0.8,0.8-1.2,1.7-1.2,2.9s0.4,2.1,1.2,2.9C17.1,32.7,18,33,19,33c1.1,0,2.1-0.4,2.9-1.2
		c0.8-0.8,1.2-1.7,1.2-2.9C23.1,28.3,22.9,27.6,22.5,27z M34.8,11.9l1.3-1.2V6.2c-1.2,1.1-2,2-2.2,2.8
		C33.8,10.2,34.1,11.1,34.8,11.9z M44.1,8h-2.7l-5.2,5.2c0.9,0.7,1.7,1,2.3,1C40.4,14.3,42.2,12.2,44.1,8z M40,3.9
		c-0.2,0.1-0.6,0.3-1,0.5c-0.4,0.2-0.7,0.4-0.9,0.5v3.7l2-2V6.1V3.9z"/>
</g>
<g id="IoT_analytics">
	<path fill="#323A45" d="M45.4,38.6c1.1,1.1,1.6,2.3,1.6,3.8s-0.5,2.8-1.6,3.8c-1.1,1.1-2.4,1.6-3.9,1.6s-2.8-0.5-3.9-1.6
		c-1.1-1.1-1.6-2.3-1.6-3.8c0-1.8,0.8-3.3,2.3-4.4L25,25.1v12.1c1.3,0.3,2.3,0.9,3.2,1.9c0.9,1,1.3,2.2,1.3,3.5
		c0,1.5-0.5,2.8-1.6,3.8C26.8,47.5,25.5,48,24,48s-2.8-0.5-4-1.6c-1.1-1.1-1.7-2.3-1.7-3.8c0-1.4,0.5-2.6,1.4-3.6
		c0.9-1,2.1-1.6,3.4-1.8V25L9.8,38.2c1.5,1.1,2.3,2.5,2.3,4.4c0,1.5-0.5,2.8-1.6,3.8C9.4,47.5,8.1,48,6.5,48s-2.8-0.5-3.9-1.6
		C1.5,45.3,1,44.1,1,42.6s0.5-2.8,1.6-3.8c1.1-1.1,2.4-1.6,3.9-1.6c0.3,0,0.8,0.1,1.4,0.2l15.2-15V10.9c-1.3-0.2-2.5-0.8-3.4-1.8
		c-0.9-1-1.4-2.2-1.4-3.6c0-1.5,0.5-2.8,1.6-3.8C21.1,0.5,22.4,0,23.9,0c1.5,0,2.8,0.5,3.9,1.6c1.1,1.1,1.6,2.3,1.6,3.8
		c0,1.3-0.4,2.5-1.2,3.5c-0.8,1-1.9,1.6-3.1,1.9v11.7l15,14.7c0.6-0.1,1.1-0.2,1.4-0.2C43,37,44.3,37.6,45.4,38.6z M10.2,42.6
		c0-1-0.4-1.8-1-2.5c-0.7-0.7-1.6-1-2.6-1S4.7,39.3,4,40c-0.7,0.7-1,1.5-1,2.5c0,1,0.3,1.8,1,2.5c0.7,0.7,1.6,1,2.6,1s1.9-0.3,2.6-1
		C9.8,44.4,10.2,43.6,10.2,42.6z M23.9,9c1,0,1.9-0.3,2.6-1c0.7-0.7,1-1.5,1-2.5c0-1-0.3-1.8-1-2.5c-0.7-0.7-1.6-1-2.6-1
		s-1.9,0.3-2.6,1c-0.7,0.7-1,1.5-1,2.5c0,1,0.3,1.8,1,2.5C22,8.7,22.9,9,23.9,9z M24,39c-1,0-1.9,0.3-2.6,1
		c-0.7,0.7-1.1,1.5-1.1,2.5c0,1,0.4,1.8,1.1,2.5c0.7,0.7,1.6,1,2.6,1c1,0,1.9-0.3,2.6-1c0.7-0.7,1-1.5,1-2.5c0-1-0.4-1.8-1-2.5
		C25.9,39.3,25,39,24,39z M45.1,42.5c0-1-0.3-1.8-1-2.5c-0.7-0.7-1.6-1-2.6-1c-1,0-1.9,0.3-2.6,1c-0.7,0.7-1,1.5-1,2.5
		c0,1,0.3,1.8,1,2.5c0.7,0.7,1.6,1,2.6,1c1,0,1.9-0.3,2.6-1C44.7,44.3,45.1,43.5,45.1,42.5z"/>
</g>
<g id="Consulting_services" display="none">
	<path display="inline" fill="#323A45" d="M47.2,4.9C47.7,5.5,48,6.2,48,7v25.8c0,0.9-0.3,1.6-0.8,2.1s-1.3,0.8-2.2,0.8H15.4L6,45
		v-9.3H3c-0.9,0-1.6-0.3-2.2-0.8S0,33.6,0,32.7V7c0-0.8,0.3-1.5,0.8-2.1C1.4,4.3,2.1,4,3,4h42C45.9,4,46.6,4.3,47.2,4.9z M46,7
		c0-0.7-0.3-1-1-1H3C2.3,6,2,6.3,2,7v25.8c0,0.7,0.3,1,1,1h5v6.5l6.7-6.5H45c0.7,0,1-0.3,1-1V7z M17.4,18.5
		c-0.4-0.4-0.9-0.6-1.4-0.6c-0.6,0-1,0.2-1.5,0.6c-0.4,0.4-0.6,0.9-0.6,1.3c0,0.6,0.2,1,0.6,1.4c0.4,0.4,0.9,0.6,1.5,0.6
		c0.5,0,1-0.2,1.4-0.6c0.4-0.4,0.6-0.9,0.6-1.4C18,19.3,17.8,18.9,17.4,18.5z M25.4,18.5c-0.4-0.4-0.8-0.6-1.4-0.6s-1,0.2-1.4,0.6
		c-0.4,0.4-0.6,0.9-0.6,1.3c0,0.6,0.2,1,0.6,1.4c0.4,0.4,0.8,0.6,1.4,0.6s1-0.2,1.4-0.6c0.4-0.4,0.6-0.9,0.6-1.4
		C26,19.3,25.8,18.9,25.4,18.5z M33.4,18.5c-0.4-0.4-0.9-0.6-1.5-0.6c-0.5,0-1,0.2-1.4,0.6c-0.4,0.4-0.6,0.9-0.6,1.3
		c0,0.6,0.2,1,0.6,1.4c0.4,0.4,0.9,0.6,1.4,0.6c0.6,0,1-0.2,1.5-0.6c0.4-0.4,0.6-0.9,0.6-1.4C34,19.3,33.8,18.9,33.4,18.5z"/>
</g>
<g id="Technical_support">
	<path fill="#323A45" d="M238,42c0,1.1-0.4,2-1.2,2.8C236,45.6,235,46,234,46c-1.1,0-2-0.4-2.8-1.2l-8.5-8.4l-1.4,1.4
		c-0.2,0.2-0.4,0.3-0.7,0.3c-0.3,0-0.6-0.1-0.7-0.3c-0.4-0.4-0.4-0.9,0-1.4l3.6-3.6l-5.2-5.2l-6.6,6.5c1.2,3.5,0.5,6.6-2.2,9.2
		c-1.7,1.7-3.9,2.6-6.4,2.6c-1.1,0-2.3-0.2-3.5-0.7c-0.4-0.1-0.6-0.4-0.6-0.7c-0.1-0.3-0.1-0.6,0.2-0.8l3.6-3.5v-2.8h-2.8l-3.6,3.5
		c-0.3,0.2-0.5,0.3-0.8,0.2c-0.4,0-0.6-0.2-0.7-0.6c-0.7-1.7-0.9-3.4-0.5-5.2c0.3-1.8,1.1-3.3,2.4-4.6c1.9-1.7,4-2.6,6.4-2.6
		c1.1,0,2.1,0.2,2.9,0.5l6.6-6.6l-10.4-10.3l-0.7,0.7c-0.2,0.2-0.4,0.3-0.7,0.3c-0.2,0-0.5-0.1-0.7-0.3l-5.7-5.6
		c-0.2-0.2-0.3-0.4-0.3-0.7c0-0.2,0.1-0.5,0.3-0.7l2.9-2.9c0.4-0.5,0.9-0.5,1.4,0l5.6,5.7c0.2,0.2,0.3,0.4,0.3,0.7
		c0,0.3-0.1,0.6-0.3,0.7l-0.7,0.7l10.3,10.4l6.6-6.5c-1.2-3.4-0.5-6.5,2.2-9.2c1.7-1.7,3.9-2.6,6.4-2.6c1.1,0,2.3,0.3,3.5,0.7
		c0.4,0.1,0.6,0.4,0.6,0.7c0.1,0.4,0,0.7-0.3,0.8L229.3,8v2.8h2.8l3.6-3.5c0.2-0.3,0.5-0.4,0.8-0.3c0.4,0,0.6,0.2,0.7,0.6
		c0.7,1.7,0.9,3.4,0.5,5.2c-0.3,1.8-1.1,3.3-2.4,4.6c-1.9,1.7-4,2.6-6.4,2.6c-1.1,0-2.1-0.2-2.9-0.5l-6.6,6.6l5.2,5.2l3.6-3.6
		c0.5-0.4,1-0.4,1.4,0c0.4,0.4,0.4,0.9,0,1.4l-1.4,1.4l8.4,8.5C237.6,40,238,40.9,238,42z M209.6,33.2l15.5-15.5
		c0.3-0.3,0.7-0.4,1.1-0.2c0.9,0.4,1.8,0.6,2.7,0.6c1.9,0,3.5-0.7,4.9-2.1c1.7-1.6,2.4-3.7,2-6.2l-2.6,2.6c-0.3,0.2-0.5,0.4-0.7,0.4
		h-4.2c-0.7,0-1-0.3-1-1V7.6c0-0.2,0.1-0.5,0.4-0.7l2.6-2.6c-0.3-0.1-0.7-0.1-1.2-0.1c-1.9,0-3.6,0.7-5,2.1
		c-2.2,2.1-2.7,4.7-1.5,7.7c0.2,0.4,0.1,0.7-0.2,1l-15.5,15.5c-0.3,0.3-0.7,0.4-1.1,0.2c-0.9-0.4-1.8-0.6-2.7-0.6
		c-1.9,0-3.5,0.7-4.9,2.1c-1.7,1.7-2.3,3.7-2,6.2l2.6-2.6c0.2-0.2,0.4-0.3,0.7-0.3h4.2c0.7,0,1,0.3,1,0.9v4.2c0,0.2-0.1,0.5-0.4,0.7
		l-2.6,2.6c0.2,0.1,0.7,0.1,1.2,0.1c2,0,3.7-0.7,5-2c2.2-2.2,2.7-4.8,1.5-7.7C209.3,33.9,209.3,33.5,209.6,33.2z M202.1,8.7
		l-4.2-4.2l-1.4,1.4l4.2,4.2L202.1,8.7z M235.4,40.6l-8.4-8.5l-2.9,2.9l8.5,8.4c0.4,0.4,0.8,0.6,1.4,0.6s1-0.2,1.4-0.6
		s0.6-0.8,0.6-1.4S235.8,41,235.4,40.6z"/>
</g>
</svg>
