<?xml version="1.0" encoding="utf-8"?>
<!-- Generator: Adobe Illustrator 16.0.0, SVG Export Plug-In . SVG Version: 6.00 Build 0)  -->
<!DOCTYPE svg PUBLIC "-//W3C//DTD SVG 1.1//EN" "http://www.w3.org/Graphics/SVG/1.1/DTD/svg11.dtd">
<svg version="1.1" id="icons" xmlns="http://www.w3.org/2000/svg" xmlns:xlink="http://www.w3.org/1999/xlink" x="0px" y="0px"
	 width="48px" height="48px" viewBox="0 0 48 48" enable-background="new 0 0 48 48" xml:space="preserve">
<g id="Data_integration">
	<path fill="#323A45" d="M44,11v26c0,2.6-1.9,4.7-5.8,6.4C34.4,45.1,29.6,46,24,46s-10.4-0.9-14.2-2.6C5.9,41.7,4,39.6,4,37V11
		c0-2.5,1.9-4.6,5.8-6.4C13.6,2.9,18.4,2,24,2s10.4,0.9,14.2,2.6C42.1,6.4,44,8.5,44,11z M6,11c0,2,1.9,3.7,5.6,5
		c3.8,1.3,7.9,2,12.4,2s8.6-0.7,12.4-2c3.8-1.3,5.6-3,5.6-5c0-2-1.9-3.7-5.6-5c-3.8-1.3-7.9-2-12.4-2s-8.6,0.7-12.4,2
		C7.8,7.3,6,9,6,11z M42,15c-3.5,3.3-9.5,5-18,5c-8.5,0-14.5-1.7-18-5v4c0,2,1.9,3.7,5.6,5c3.8,1.3,7.9,2,12.4,2s8.6-0.7,12.4-2
		c3.8-1.3,5.6-3,5.6-5V15z M42,23c-1.6,1.5-4.1,2.7-7.3,3.7C31.5,27.6,27.9,28,24,28s-7.5-0.5-10.8-1.4C10,25.7,7.6,24.5,6,23V28
		c0,2,1.9,3.7,5.6,5c3.8,1.3,7.9,2,12.4,2s8.6-0.7,12.4-2c3.8-1.3,5.6-3,5.6-5V23z M42,37V32c-1.6,1.5-4.1,2.7-7.3,3.7
		C31.5,36.5,27.9,37,24,37s-7.5-0.5-10.8-1.4C10,34.7,7.6,33.5,6,32V37c0,2,1.9,3.7,5.6,5c3.8,1.3,7.9,2,12.4,2s8.6-0.7,12.4-2
		C40.2,40.7,42,39,42,37z"/>
</g>
<g id="Predictive_analytics">
	<path fill="#323A45" d="M96,6.1l-0.9,2.5c-0.6,1.7-1.7,3.5-3.1,5.2c-1.4,1.7-2.9,2.5-4.5,2.5c-1.2,0-2.5-0.5-3.7-1.6L81.4,17
		c3.1,3.4,4.6,7.4,4.6,12c0,4.6-1.5,8.6-4.6,12h0.1l4.2,4.3c0.5,0.5,0.5,1,0,1.4c-0.2,0.2-0.4,0.3-0.7,0.3c-0.3,0-0.6-0.1-0.7-0.3
		l-4.2-4.3H80c-3.5,3.1-7.5,4.6-12,4.6c-4.5,0-8.5-1.5-12-4.6l-4.2,4.3c-0.3,0.2-0.5,0.3-0.7,0.3c-0.2,0-0.5-0.1-0.7-0.3
		c-0.5-0.4-0.5-0.9,0-1.4l4.3-4.3c-3.1-3.5-4.6-7.5-4.6-12c0-5,1.8-9.2,5.3-12.7C58.9,12.8,63.1,11,68,11c4.5,0,8.5,1.5,12,4.6
		l2.3-2.3c-0.9-1.1-1.4-2.1-1.5-3.1c-0.1-1,0-1.9,0.4-2.7c0.4-0.8,1-1.5,1.9-2.2C84,4.5,84.8,4,85.6,3.5c0.8-0.5,1.7-0.9,2.6-1.4
		c0.9-0.4,1.6-0.7,2-0.8C90.6,1.2,90.9,1.1,91,1v5.1H96z M80,18.4l-2.8,2.8c1.9,2.2,2.8,4.8,2.8,7.8c0,3.3-1.2,6.1-3.5,8.5
		C74.2,39.8,71.3,41,68,41s-6.1-1.2-8.5-3.5c-2.3-2.3-3.5-5.2-3.5-8.5c0-3.3,1.2-6.1,3.5-8.5c2.3-2.3,5.2-3.5,8.5-3.5
		c3,0,5.6,0.9,7.8,2.8l2.8-2.8c-3.1-2.7-6.6-4-10.6-4c-4.4,0-8.1,1.6-11.2,4.7c-3.1,3.1-4.7,6.9-4.7,11.3c0,4.4,1.6,8.2,4.7,11.3
		C59.9,43.5,63.7,45,68,45c4.4,0,8.2-1.6,11.3-4.7C82.5,37.1,84,33.4,84,29C84,25,82.7,21.4,80,18.4z M74.4,21.2
		c-1.9-1.5-4-2.2-6.4-2.2c-2.7,0-5.1,1-7,3s-2.9,4.3-2.9,7.1c0,2.7,1,5.1,2.9,7.1s4.3,3,7,3s5.1-1,7.1-3c2-2,2.9-4.3,2.9-7.1
		c0-2.4-0.7-4.5-2.2-6.3l-2.9,2.8c0.7,0.9,1.1,2.1,1.1,3.5c0,1.6-0.6,3-1.7,4.2C71.1,34.4,69.7,35,68,35c-1.6,0-3-0.6-4.2-1.8
		c-1.2-1.2-1.8-2.6-1.8-4.2c0-1.6,0.6-3,1.8-4.2C65,23.6,66.4,23,68,23c1.4,0,2.5,0.4,3.5,1.1L74.4,21.2z M71.5,27L70,28.5v0.2
		c0.1,0.1,0.1,0.2,0.1,0.3c0,0.6-0.2,1-0.6,1.4C69.1,30.8,68.6,31,68,31c-0.5,0-1-0.2-1.4-0.6c-0.4-0.4-0.6-0.8-0.6-1.4
		s0.2-1,0.6-1.4c0.4-0.4,0.9-0.6,1.4-0.6h0.6l1.5-1.5C69.4,25.2,68.7,25,68,25c-1.1,0-2,0.4-2.8,1.2c-0.8,0.8-1.2,1.7-1.2,2.9
		s0.4,2.1,1.2,2.9C66.1,32.7,67,33,68,33c1.1,0,2.1-0.4,2.9-1.2c0.8-0.8,1.2-1.7,1.2-2.9C72.1,28.3,71.9,27.6,71.5,27z M83.8,11.9
		l1.3-1.2V6.2c-1.2,1.1-2,2-2.2,2.8C82.8,10.2,83.1,11.1,83.8,11.9z M93.1,8h-2.7l-5.2,5.2c0.9,0.7,1.7,1,2.3,1
		C89.4,14.3,91.2,12.2,93.1,8z M89,3.9c-0.2,0.1-0.6,0.3-1,0.5c-0.4,0.2-0.7,0.4-0.9,0.5v3.7l2-2V6.1V3.9z"/>
</g>
<g id="IoT_analytics">
	<path fill="#323A45" d="M141.4,38.6c1.1,1.1,1.6,2.3,1.6,3.8s-0.5,2.8-1.6,3.8c-1.1,1.1-2.4,1.6-3.9,1.6s-2.8-0.5-3.9-1.6
		c-1.1-1.1-1.6-2.3-1.6-3.8c0-1.8,0.8-3.3,2.3-4.4L121,25.1v12.1c1.3,0.3,2.3,0.9,3.2,1.9c0.9,1,1.3,2.2,1.3,3.5
		c0,1.5-0.5,2.8-1.6,3.8c-1.1,1.1-2.4,1.6-3.9,1.6s-2.8-0.5-4-1.6c-1.1-1.1-1.7-2.3-1.7-3.8c0-1.4,0.5-2.6,1.4-3.6
		c0.9-1,2.1-1.6,3.4-1.8V25l-13.4,13.1c1.5,1.1,2.3,2.5,2.3,4.4c0,1.5-0.5,2.8-1.6,3.8c-1.1,1.1-2.4,1.6-3.9,1.6s-2.8-0.5-3.9-1.6
		c-1.1-1.1-1.6-2.3-1.6-3.8s0.5-2.8,1.6-3.8c1.1-1.1,2.4-1.6,3.9-1.6c0.3,0,0.8,0.1,1.4,0.2l15.2-15V10.9c-1.3-0.2-2.5-0.8-3.4-1.8
		c-0.9-1-1.4-2.2-1.4-3.6c0-1.5,0.5-2.8,1.6-3.8c1.1-1.1,2.4-1.6,3.9-1.6c1.5,0,2.8,0.5,3.9,1.6c1.1,1.1,1.6,2.3,1.6,3.8
		c0,1.3-0.4,2.5-1.2,3.5c-0.8,1-1.9,1.6-3.1,1.9v11.7l15,14.7c0.6-0.1,1.1-0.2,1.4-0.2C139,37,140.3,37.6,141.4,38.6z M106.2,42.6
		c0-1-0.4-1.8-1-2.5c-0.7-0.7-1.6-1-2.6-1s-1.9,0.3-2.6,1c-0.7,0.7-1,1.5-1,2.5c0,1,0.3,1.8,1,2.5c0.7,0.7,1.6,1,2.6,1
		s1.9-0.3,2.6-1C105.8,44.4,106.2,43.6,106.2,42.6z M119.9,9c1,0,1.9-0.3,2.6-1c0.7-0.7,1-1.5,1-2.5c0-1-0.3-1.8-1-2.5
		c-0.7-0.7-1.6-1-2.6-1s-1.9,0.3-2.6,1c-0.7,0.7-1,1.5-1,2.5c0,1,0.3,1.8,1,2.5C118,8.7,118.9,9,119.9,9z M120,39
		c-1,0-1.9,0.3-2.6,1c-0.7,0.7-1.1,1.5-1.1,2.5c0,1,0.4,1.8,1.1,2.5c0.7,0.7,1.6,1,2.6,1c1,0,1.9-0.3,2.6-1c0.7-0.7,1-1.5,1-2.5
		c0-1-0.4-1.8-1-2.5C121.9,39.3,121,39,120,39z M141.1,42.5c0-1-0.3-1.8-1-2.5c-0.7-0.7-1.6-1-2.6-1c-1,0-1.9,0.3-2.6,1
		c-0.7,0.7-1,1.5-1,2.5c0,1,0.3,1.8,1,2.5c0.7,0.7,1.6,1,2.6,1c1,0,1.9-0.3,2.6-1C140.7,44.3,141.1,43.5,141.1,42.5z"/>
</g>
<g id="Consulting_services">
	<path fill="#323A45" d="M191.2,5.9c0.6,0.6,0.8,1.3,0.8,2.1v25.8c0,0.9-0.3,1.6-0.8,2.1s-1.3,0.8-2.2,0.8h-29.6L150,46v-9.3h-3
		c-0.9,0-1.6-0.3-2.2-0.8s-0.8-1.3-0.8-2.1V8c0-0.8,0.3-1.5,0.8-2.1c0.6-0.6,1.3-0.9,2.2-0.9h42C189.9,5,190.6,5.3,191.2,5.9z
		 M190,8c0-0.7-0.3-1-1-1h-42c-0.7,0-1,0.3-1,1v25.8c0,0.7,0.3,1,1,1h5v6.5l6.7-6.5H189c0.7,0,1-0.3,1-1V8z M161.4,19.5
		c-0.4-0.4-0.9-0.6-1.4-0.6c-0.6,0-1,0.2-1.5,0.6c-0.4,0.4-0.6,0.9-0.6,1.3c0,0.6,0.2,1,0.6,1.4c0.4,0.4,0.9,0.6,1.5,0.6
		c0.5,0,1-0.2,1.4-0.6c0.4-0.4,0.6-0.9,0.6-1.4C162,20.3,161.8,19.9,161.4,19.5z M169.4,19.5c-0.4-0.4-0.8-0.6-1.4-0.6
		s-1,0.2-1.4,0.6c-0.4,0.4-0.6,0.9-0.6,1.3c0,0.6,0.2,1,0.6,1.4c0.4,0.4,0.8,0.6,1.4,0.6s1-0.2,1.4-0.6c0.4-0.4,0.6-0.9,0.6-1.4
		C170,20.3,169.8,19.9,169.4,19.5z M177.4,19.5c-0.4-0.4-0.9-0.6-1.5-0.6c-0.5,0-1,0.2-1.4,0.6c-0.4,0.4-0.6,0.9-0.6,1.3
		c0,0.6,0.2,1,0.6,1.4c0.4,0.4,0.9,0.6,1.4,0.6c0.6,0,1-0.2,1.5-0.6c0.4-0.4,0.6-0.9,0.6-1.4C178,20.3,177.8,19.9,177.4,19.5z"/>
</g>
<g id="Technical_support">
	<path fill="#323A45" d="M238,42c0,1.1-0.4,2-1.2,2.8C236,45.6,235,46,234,46c-1.1,0-2-0.4-2.8-1.2l-8.5-8.4l-1.4,1.4
		c-0.2,0.2-0.4,0.3-0.7,0.3c-0.3,0-0.6-0.1-0.7-0.3c-0.4-0.4-0.4-0.9,0-1.4l3.6-3.6l-5.2-5.2l-6.6,6.5c1.2,3.5,0.5,6.6-2.2,9.2
		c-1.7,1.7-3.9,2.6-6.4,2.6c-1.1,0-2.3-0.2-3.5-0.7c-0.4-0.1-0.6-0.4-0.6-0.7c-0.1-0.3-0.1-0.6,0.2-0.8l3.6-3.5v-2.8h-2.8l-3.6,3.5
		c-0.3,0.2-0.5,0.3-0.8,0.2c-0.4,0-0.6-0.2-0.7-0.6c-0.7-1.7-0.9-3.4-0.5-5.2c0.3-1.8,1.1-3.3,2.4-4.6c1.9-1.7,4-2.6,6.4-2.6
		c1.1,0,2.1,0.2,2.9,0.5l6.6-6.6l-10.4-10.3l-0.7,0.7c-0.2,0.2-0.4,0.3-0.7,0.3c-0.2,0-0.5-0.1-0.7-0.3l-5.7-5.6
		c-0.2-0.2-0.3-0.4-0.3-0.7c0-0.2,0.1-0.5,0.3-0.7l2.9-2.9c0.4-0.5,0.9-0.5,1.4,0l5.6,5.7c0.2,0.2,0.3,0.4,0.3,0.7
		c0,0.3-0.1,0.6-0.3,0.7l-0.7,0.7l10.3,10.4l6.6-6.5c-1.2-3.4-0.5-6.5,2.2-9.2c1.7-1.7,3.9-2.6,6.4-2.6c1.1,0,2.3,0.3,3.5,0.7
		c0.4,0.1,0.6,0.4,0.6,0.7c0.1,0.4,0,0.7-0.3,0.8L229.3,8v2.8h2.8l3.6-3.5c0.2-0.3,0.5-0.4,0.8-0.3c0.4,0,0.6,0.2,0.7,0.6
		c0.7,1.7,0.9,3.4,0.5,5.2c-0.3,1.8-1.1,3.3-2.4,4.6c-1.9,1.7-4,2.6-6.4,2.6c-1.1,0-2.1-0.2-2.9-0.5l-6.6,6.6l5.2,5.2l3.6-3.6
		c0.5-0.4,1-0.4,1.4,0c0.4,0.4,0.4,0.9,0,1.4l-1.4,1.4l8.4,8.5C237.6,40,238,40.9,238,42z M209.6,33.2l15.5-15.5
		c0.3-0.3,0.7-0.4,1.1-0.2c0.9,0.4,1.8,0.6,2.7,0.6c1.9,0,3.5-0.7,4.9-2.1c1.7-1.6,2.4-3.7,2-6.2l-2.6,2.6c-0.3,0.2-0.5,0.4-0.7,0.4
		h-4.2c-0.7,0-1-0.3-1-1V7.6c0-0.2,0.1-0.5,0.4-0.7l2.6-2.6c-0.3-0.1-0.7-0.1-1.2-0.1c-1.9,0-3.6,0.7-5,2.1
		c-2.2,2.1-2.7,4.7-1.5,7.7c0.2,0.4,0.1,0.7-0.2,1l-15.5,15.5c-0.3,0.3-0.7,0.4-1.1,0.2c-0.9-0.4-1.8-0.6-2.7-0.6
		c-1.9,0-3.5,0.7-4.9,2.1c-1.7,1.7-2.3,3.7-2,6.2l2.6-2.6c0.2-0.2,0.4-0.3,0.7-0.3h4.2c0.7,0,1,0.3,1,0.9v4.2c0,0.2-0.1,0.5-0.4,0.7
		l-2.6,2.6c0.2,0.1,0.7,0.1,1.2,0.1c2,0,3.7-0.7,5-2c2.2-2.2,2.7-4.8,1.5-7.7C209.3,33.9,209.3,33.5,209.6,33.2z M202.1,8.7
		l-4.2-4.2l-1.4,1.4l4.2,4.2L202.1,8.7z M235.4,40.6l-8.4-8.5l-2.9,2.9l8.5,8.4c0.4,0.4,0.8,0.6,1.4,0.6s1-0.2,1.4-0.6
		s0.6-0.8,0.6-1.4S235.8,41,235.4,40.6z"/>
</g>
</svg>
