<?xml version="1.0" encoding="utf-8"?>
<!-- Generator: Adobe Illustrator 16.0.0, SVG Export Plug-In . SVG Version: 6.00 Build 0)  -->
<!DOCTYPE svg PUBLIC "-//W3C//DTD SVG 1.1//EN" "http://www.w3.org/Graphics/SVG/1.1/DTD/svg11.dtd">
<svg version="1.1" id="icons" xmlns="http://www.w3.org/2000/svg" xmlns:xlink="http://www.w3.org/1999/xlink" x="0px" y="0px"
	 width="234px" height="48px" viewBox="0 0 234 48" enable-background="new 0 0 234 48" xml:space="preserve">
<g id="Data_integration">
	<path fill="#323A45" d="M40,11V37c0,2.6-1.9,4.7-5.8,6.4C30.4,45.2,25.6,46,20,46S9.6,45.2,5.8,43.5C2,41.7,0,39.6,0,37V11
		C0,8.5,2,6.3,5.8,4.6C9.6,2.8,14.4,2,20,2s10.4,0.9,14.2,2.6C38,6.3,40,8.5,40,11z M2,11c0,2,1.9,3.7,5.6,5c3.8,1.3,7.9,2,12.4,2
		s8.6-0.7,12.4-2c3.8-1.3,5.6-3,5.6-5c0-2-1.9-3.7-5.6-5S24.5,4,20,4S11.4,4.7,7.6,6S2,9,2,11z M38,15c-3.5,3.3-9.5,5-18,5
		c-8.5,0-14.5-1.7-18-5v4c0,2,1.9,3.7,5.6,5s7.9,2,12.4,2s8.6-0.7,12.4-2s5.6-3,5.6-5V15z M38,23c-1.6,1.5-4,2.7-7.3,3.7
		C27.5,27.6,23.9,28,20,28s-7.5-0.5-10.7-1.4C6,25.7,3.6,24.5,2,23V28c0,2,1.9,3.7,5.6,5s7.9,2,12.4,2s8.6-0.7,12.4-2s5.6-3,5.6-5
		V23z M38,37V32c-1.6,1.5-4,2.7-7.3,3.7C27.5,36.6,23.9,37,20,37s-7.5-0.5-10.7-1.4C6,34.7,3.6,33.5,2,32V37c0,2,1.9,3.7,5.6,5
		s7.9,2,12.4,2s8.6-0.7,12.4-2S38,39,38,37z"/>
</g>
<g id="Predictive_analytics">
	<path fill="#323A45" d="M92,7l-0.9,2.5c-0.6,1.8-1.7,3.5-3.1,5.2c-1.4,1.7-2.9,2.5-4.5,2.5c-1.3,0-2.5-0.5-3.8-1.6L77.4,18
		c3.1,3.4,4.6,7.4,4.6,12c0,4.6-1.5,8.6-4.6,12h0.1l4.2,4.3c0.5,0.5,0.5,1,0,1.4C81.5,47.9,81.3,48,81,48c-0.3,0-0.6-0.1-0.8-0.3
		l-4.2-4.3H76c-3.5,3.1-7.5,4.6-12,4.6s-8.5-1.5-12-4.6l-4.2,4.3C47.5,47.9,47.2,48,47,48c-0.3,0-0.5-0.1-0.8-0.3
		c-0.5-0.4-0.5-0.9,0-1.4l4.3-4.3c-3.1-3.5-4.6-7.5-4.6-12c0-5,1.8-9.2,5.3-12.8C54.8,13.8,59,12,64,12c4.5,0,8.5,1.5,12,4.6
		l2.3-2.3c-0.9-1.1-1.4-2.1-1.5-3.1c-0.1-1,0-1.9,0.4-2.7c0.4-0.8,1-1.5,1.9-2.3c0.8-0.7,1.7-1.3,2.5-1.8c0.8-0.5,1.7-0.9,2.6-1.4
		c0.9-0.4,1.6-0.7,2-0.8C86.6,2.1,86.8,2,87,2V7H92z M76,19.4l-2.8,2.8C75,24.5,76,27.1,76,30c0,3.3-1.2,6.1-3.5,8.5S67.3,42,64,42
		c-3.3,0-6.1-1.2-8.5-3.5S52,33.3,52,30c0-3.3,1.2-6.1,3.5-8.5S60.7,18,64,18c3,0,5.6,0.9,7.8,2.8l2.8-2.8c-3.1-2.7-6.7-4-10.6-4
		c-4.4,0-8.1,1.6-11.3,4.7C49.6,21.8,48,25.6,48,30c0,4.4,1.6,8.2,4.7,11.3C55.8,44.5,59.6,46,64,46c4.4,0,8.2-1.6,11.3-4.7
		C78.4,38.1,80,34.4,80,30C80,25.9,78.7,22.4,76,19.4z M70.3,22.2c-1.9-1.5-4-2.3-6.4-2.3c-2.8,0-5.1,1-7,3C55,24.9,54,27.3,54,30
		c0,2.8,1,5.1,2.9,7.1c1.9,2,4.3,3,7,3c2.8,0,5.1-1,7.1-3s3-4.3,3-7.1c0-2.4-0.8-4.5-2.3-6.3l-2.9,2.8c0.8,0.9,1.1,2.1,1.1,3.5
		c0,1.6-0.6,3-1.7,4.2C67.1,35.4,65.7,36,64,36c-1.6,0-3-0.6-4.2-1.8C58.6,33,58,31.6,58,30c0-1.6,0.6-3,1.8-4.2
		c1.2-1.2,2.6-1.8,4.2-1.8c1.4,0,2.5,0.4,3.5,1.1L70.3,22.2z M67.4,27.9l-1.5,1.6v0.2C66,29.8,66,29.9,66,30c0,0.6-0.2,1-0.6,1.4
		C65,31.8,64.5,32,64,32c-0.5,0-1-0.2-1.4-0.6C62.2,31,62,30.6,62,30s0.2-1,0.6-1.4C63,28.2,63.5,28,64,28h0.6l1.5-1.5
		C65.3,26.2,64.6,26,64,26c-1.1,0-2,0.4-2.8,1.2C60.4,27.9,60,28.9,60,30s0.4,2.1,1.2,2.9C62,33.6,62.9,34,64,34
		c1.1,0,2.1-0.4,2.9-1.2c0.8-0.8,1.2-1.7,1.2-2.9C68,29.3,67.8,28.6,67.4,27.9z M79.7,12.8l1.3-1.2V7.2c-1.3,1.1-2,2-2.3,2.8
		C78.8,11.2,79.1,12.1,79.7,12.8z M89.1,9h-2.7l-5.3,5.3c0.9,0.7,1.7,1,2.3,1C85.3,15.3,87.2,13.2,89.1,9z M85,4.9
		c-0.3,0.1-0.6,0.3-1,0.5c-0.4,0.2-0.8,0.4-0.9,0.5v3.7l2-2V7V4.9z"/>
</g>
<g id="IoT_analytics">
	<path fill="#323A45" d="M137,38.6c1.1,1.1,1.6,2.3,1.6,3.8s-0.5,2.8-1.6,3.8c-1.1,1.1-2.3,1.6-3.8,1.6s-2.8-0.5-3.8-1.6
		c-1.1-1.1-1.6-2.3-1.6-3.8c0-1.8,0.8-3.3,2.3-4.4L117,25.1v12.1c1.3,0.3,2.3,0.9,3.1,1.9c0.8,1,1.3,2.2,1.3,3.5
		c0,1.5-0.5,2.8-1.6,3.8c-1.1,1.1-2.3,1.6-3.8,1.6s-2.8-0.5-3.9-1.6c-1.1-1.1-1.6-2.3-1.6-3.8c0-1.4,0.5-2.6,1.4-3.6
		c0.9-1,2-1.6,3.3-1.8V25L102,38.2c1.5,1.1,2.3,2.5,2.3,4.4c0,1.5-0.5,2.8-1.6,3.8c-1.1,1.1-2.3,1.6-3.8,1.6s-2.8-0.5-3.8-1.6
		c-1.1-1.1-1.6-2.3-1.6-3.8s0.5-2.8,1.6-3.8c1.1-1.1,2.3-1.6,3.8-1.6c0.3,0,0.8,0.1,1.4,0.2l14.9-15V10.9c-1.3-0.2-2.4-0.8-3.3-1.8
		c-0.9-1-1.4-2.2-1.4-3.6c0-1.5,0.5-2.8,1.6-3.8c1.1-1.1,2.3-1.6,3.8-1.6s2.8,0.5,3.8,1.6c1.1,1.1,1.6,2.3,1.6,3.8
		c0,1.3-0.4,2.5-1.2,3.5c-0.8,1-1.8,1.6-3.1,1.9v11.7l14.7,14.7c0.6-0.1,1.1-0.2,1.4-0.2C134.7,37,135.9,37.6,137,38.6z M102.4,42.6
		c0-1-0.3-1.8-1-2.5c-0.7-0.7-1.5-1-2.5-1c-1,0-1.8,0.3-2.5,1c-0.7,0.7-1,1.5-1,2.5c0,1,0.3,1.8,1,2.5c0.7,0.7,1.5,1,2.5,1
		c1,0,1.8-0.3,2.5-1C102.1,44.4,102.4,43.6,102.4,42.6z M115.9,9c1,0,1.8-0.3,2.5-1c0.7-0.7,1-1.5,1-2.5c0-1-0.3-1.8-1-2.5
		c-0.7-0.7-1.5-1-2.5-1c-1,0-1.8,0.3-2.5,1c-0.7,0.7-1,1.5-1,2.5c0,1,0.3,1.8,1,2.5C114.1,8.7,114.9,9,115.9,9z M116,39
		c-1,0-1.9,0.3-2.6,1c-0.7,0.7-1.1,1.5-1.1,2.5c0,1,0.4,1.8,1.1,2.5c0.7,0.7,1.6,1,2.6,1c1,0,1.8-0.3,2.5-1c0.7-0.7,1-1.5,1-2.5
		c0-1-0.3-1.8-1-2.5C117.8,39.3,117,39,116,39z M136.7,42.5c0-1-0.3-1.8-1-2.5c-0.7-0.7-1.5-1-2.5-1c-1,0-1.8,0.3-2.5,1
		c-0.7,0.7-1,1.5-1,2.5c0,1,0.3,1.8,1,2.5c0.7,0.7,1.5,1,2.5,1c1,0,1.8-0.3,2.5-1C136.4,44.3,136.7,43.5,136.7,42.5z"/>
</g>
<g id="Consulting_services">
	<path fill="#323A45" d="M187.2,4.9c0.6,0.6,0.8,1.3,0.8,2.1v26c0,0.9-0.3,1.6-0.8,2.2S185.9,36,185,36h-29.6l-9.4,9.4V36h-3
		c-0.9,0-1.6-0.3-2.2-0.8S140,33.9,140,33V7c0-0.8,0.3-1.5,0.8-2.1c0.6-0.6,1.3-0.9,2.2-0.9h42C185.9,4,186.6,4.3,187.2,4.9z M186,7
		c0-0.7-0.3-1-1-1h-42c-0.7,0-1,0.3-1,1v26c0,0.7,0.3,1,1,1h5v6.6l6.7-6.6H185c0.7,0,1-0.3,1-1V7z M157.4,18.6
		c-0.4-0.4-0.9-0.6-1.4-0.6c-0.6,0-1,0.2-1.5,0.6c-0.4,0.4-0.6,0.9-0.6,1.4c0,0.6,0.2,1,0.6,1.5c0.4,0.4,0.9,0.6,1.5,0.6
		c0.5,0,1-0.2,1.4-0.6c0.4-0.4,0.6-0.9,0.6-1.5C158,19.5,157.8,19,157.4,18.6z M165.4,18.6c-0.4-0.4-0.8-0.6-1.4-0.6s-1,0.2-1.4,0.6
		c-0.4,0.4-0.6,0.9-0.6,1.4c0,0.6,0.2,1,0.6,1.5c0.4,0.4,0.8,0.6,1.4,0.6s1-0.2,1.4-0.6c0.4-0.4,0.6-0.9,0.6-1.5
		C166,19.5,165.8,19,165.4,18.6z M173.4,18.6c-0.4-0.4-0.9-0.6-1.5-0.6c-0.5,0-1,0.2-1.4,0.6c-0.4,0.4-0.6,0.9-0.6,1.4
		c0,0.6,0.2,1,0.6,1.5c0.4,0.4,0.9,0.6,1.4,0.6c0.6,0,1-0.2,1.5-0.6c0.4-0.4,0.6-0.9,0.6-1.5C174,19.5,173.8,19,173.4,18.6z"/>
</g>
<g id="Technical_support">
	<path fill="#323A45" d="M234,42c0,1.1-0.4,2-1.2,2.8c-0.8,0.8-1.8,1.2-2.8,1.2c-1.1,0-2-0.4-2.8-1.2l-8.5-8.4l-1.4,1.4
		c-0.2,0.2-0.4,0.3-0.7,0.3c-0.3,0-0.6-0.1-0.8-0.3c-0.4-0.4-0.4-0.9,0-1.4l3.6-3.6l-5.3-5.3l-6.7,6.6c1.2,3.6,0.5,6.7-2.2,9.3
		c-1.8,1.8-3.9,2.6-6.4,2.6c-1.1,0-2.3-0.2-3.5-0.8c-0.4-0.1-0.6-0.4-0.6-0.8c-0.1-0.3-0.1-0.6,0.2-0.8l3.6-3.6v-2.8h-2.8l-3.6,3.6
		c-0.3,0.3-0.5,0.3-0.8,0.2c-0.4,0-0.6-0.2-0.8-0.6c-0.7-1.7-0.9-3.4-0.5-5.2c0.3-1.8,1.1-3.3,2.4-4.6c1.9-1.7,4-2.6,6.4-2.6
		c1.1,0,2.1,0.2,2.9,0.5l6.6-6.7L198,11.5l-0.7,0.7c-0.2,0.2-0.4,0.3-0.8,0.3c-0.3,0-0.5-0.1-0.7-0.3l-5.7-5.6
		c-0.2-0.2-0.3-0.4-0.3-0.8c0-0.2,0.1-0.5,0.3-0.7l2.9-2.9c0.4-0.5,0.9-0.5,1.4,0l5.6,5.7c0.2,0.2,0.3,0.4,0.3,0.7
		c0,0.3-0.1,0.6-0.3,0.8l-0.7,0.7l10.3,10.4l6.7-6.6c-1.2-3.4-0.5-6.5,2.2-9.3c1.7-1.7,3.9-2.6,6.4-2.6c1.1,0,2.3,0.3,3.5,0.8
		c0.4,0.1,0.6,0.4,0.6,0.8c0.1,0.4,0,0.7-0.3,0.8l-3.5,3.6v2.8h2.8l3.6-3.5c0.2-0.3,0.5-0.4,0.8-0.3c0.4,0,0.6,0.2,0.8,0.6
		c0.7,1.7,0.9,3.4,0.5,5.2c-0.3,1.8-1.1,3.3-2.4,4.6c-1.9,1.8-4,2.6-6.4,2.6c-1.1,0-2.1-0.2-2.9-0.5l-6.6,6.7l5.3,5.3l3.6-3.6
		c0.5-0.4,1-0.4,1.4,0c0.4,0.4,0.4,0.9,0,1.4l-1.4,1.4l8.4,8.5C233.6,40,234,40.9,234,42z M205.6,33.2l15.6-15.6
		c0.3-0.3,0.7-0.4,1.1-0.2c0.9,0.4,1.8,0.6,2.7,0.6c1.9,0,3.5-0.7,4.9-2.1c1.7-1.6,2.4-3.7,2-6.2l-2.6,2.6c-0.3,0.3-0.5,0.4-0.8,0.4
		h-4.2c-0.7,0-1-0.3-1-1V7.5c0-0.2,0.1-0.5,0.4-0.8l2.6-2.6C225.9,4.1,225.5,4,225,4c-1.9,0-3.6,0.7-5,2.1c-2.3,2.1-2.8,4.7-1.5,7.7
		c0.2,0.4,0.1,0.7-0.2,1l-15.6,15.6c-0.3,0.3-0.7,0.4-1.1,0.2c-0.9-0.4-1.8-0.6-2.7-0.6c-1.9,0-3.5,0.7-4.9,2.1
		c-1.7,1.7-2.3,3.8-2,6.2l2.6-2.6c0.2-0.2,0.4-0.3,0.8-0.3h4.2c0.7,0,1,0.3,1,0.9v4.2c0,0.3-0.1,0.5-0.4,0.8l-2.6,2.6
		c0.2,0.1,0.7,0.1,1.2,0.1c2,0,3.7-0.7,5-2c2.3-2.3,2.8-4.8,1.5-7.7C205.3,33.9,205.3,33.5,205.6,33.2z M198,8.6l-4.2-4.2l-1.4,1.4
		l4.2,4.2L198,8.6z M231.4,40.6l-8.4-8.5l-2.9,2.9l8.5,8.4c0.4,0.4,0.8,0.6,1.4,0.6s1-0.2,1.4-0.6s0.6-0.8,0.6-1.4
		S231.8,41,231.4,40.6z"/>
</g>
</svg>
