<?xml version="1.0" ?><svg height="56.25" id="svg2" version="1.1" width="56.25" xml:space="preserve" xmlns="http://www.w3.org/2000/svg" xmlns:cc="http://creativecommons.org/ns#" xmlns:dc="http://purl.org/dc/elements/1.1/" xmlns:inkscape="http://www.inkscape.org/namespaces/inkscape" xmlns:rdf="http://www.w3.org/1999/02/22-rdf-syntax-ns#" xmlns:svg="http://www.w3.org/2000/svg"><defs id="defs6"><clipPath id="clipPath16"><path d="M 0,0 0,45 45,45 45,0 0,0" id="path18"/></clipPath></defs><g id="g10" transform="matrix(1.25,0,0,-1.25,0,56.25)"><g id="g12"><g clip-path="url(#clipPath16)" id="g14"><g id="g20"><g id="g22"><g id="g24"><path d="m 9.347,6.027 0,32.946 c 0,0.843 0.684,1.527 1.527,1.527 l 13.349,0 11.43,-11.43 0,-23.043 C 35.653,5.184 34.969,4.5 34.126,4.5 l -23.252,0 c -0.843,0 -1.527,0.684 -1.527,1.527 z" id="path26" style="fill:#2b2b2b;fill-opacity:1;fill-rule:evenodd;stroke:none"/></g></g><g id="g28"><g id="g30"><path d="m 24.223,40.5 11.43,-11.43 -9.903,0 c -0.843,0 -1.527,0.684 -1.527,1.527 l 0,9.903 z" id="path32" style="fill:#525252;fill-opacity:1;fill-rule:evenodd;stroke:none"/></g></g><g id="g34"><g id="g36"><path d="m 15.763,14.191 2.252,-5.529 -0.863,0 -0.565,1.44 -2.369,0 -0.566,-1.44 -0.815,0 2.247,5.529 0.679,0 z m -1.326,-3.441 1.931,0 -0.968,2.474 -0.963,-2.474 z" id="path38" style="fill:#e6e6e6;fill-opacity:1;fill-rule:nonzero;stroke:none"/></g></g><g id="g40"><g id="g42"><path d="m 19.404,14.176 0,-5.514 -0.772,0 0,5.514 0.772,0 z" id="path44" style="fill:#e6e6e6;fill-opacity:1;fill-rule:nonzero;stroke:none"/></g></g><g id="g46"><g id="g48"><path d="M 24.805,9.95 25.14,9.38 C 24.656,8.836 23.985,8.564 23.127,8.564 c -0.814,0 -1.488,0.263 -2.022,0.789 -0.533,0.525 -0.799,1.211 -0.799,2.058 0,0.847 0.268,1.533 0.805,2.058 0.538,0.526 1.209,0.789 2.016,0.789 0.809,0 1.46,-0.244 1.955,-0.73 l -0.324,-0.624 c -0.128,0.163 -0.34,0.317 -0.636,0.46 -0.297,0.143 -0.618,0.215 -0.964,0.215 -0.601,0 -1.093,-0.199 -1.477,-0.597 -0.384,-0.398 -0.576,-0.917 -0.576,-1.555 0,-0.639 0.194,-1.157 0.58,-1.553 0.386,-0.397 0.877,-0.595 1.473,-0.595 0.687,0 1.236,0.223 1.647,0.671 z" id="path50" style="fill:#e6e6e6;fill-opacity:1;fill-rule:nonzero;stroke:none"/></g></g><g id="g52"><g id="g54"><path d="m 28.988,14.176 0,-0.648 -2.287,0 0,-1.838 2.15,0 0,-0.648 -2.15,0 0,-2.38 -0.772,0 0,5.514 3.059,0 z" id="path56" style="fill:#e6e6e6;fill-opacity:1;fill-rule:nonzero;stroke:none"/></g></g></g></g></g></g></svg>