<?xml version="1.0" ?><svg height="56.25" id="svg2" version="1.1" width="56.25" xml:space="preserve" xmlns="http://www.w3.org/2000/svg" xmlns:cc="http://creativecommons.org/ns#" xmlns:dc="http://purl.org/dc/elements/1.1/" xmlns:inkscape="http://www.inkscape.org/namespaces/inkscape" xmlns:rdf="http://www.w3.org/1999/02/22-rdf-syntax-ns#" xmlns:svg="http://www.w3.org/2000/svg"><defs id="defs6"><clipPath id="clipPath16"><path d="M 0,0 0,45 45,45 45,0 0,0" id="path18"/></clipPath></defs><g id="g10" transform="matrix(1.25,0,0,-1.25,0,56.25)"><g id="g12"><g clip-path="url(#clipPath16)" id="g14"><g id="g20"><g id="g22"><g id="g24"><path d="m 9.347,6.027 0,32.946 c 0,0.843 0.684,1.527 1.527,1.527 l 13.349,0 11.43,-11.43 0,-23.043 C 35.653,5.184 34.969,4.5 34.126,4.5 l -23.252,0 c -0.843,0 -1.527,0.684 -1.527,1.527 z" id="path26" style="fill:#2b2b2b;fill-opacity:1;fill-rule:evenodd;stroke:none"/></g></g><g id="g28"><g id="g30"><path d="m 24.223,40.5 11.43,-11.43 -9.903,0 c -0.843,0 -1.527,0.684 -1.527,1.527 l 0,9.903 z" id="path32" style="fill:#525252;fill-opacity:1;fill-rule:evenodd;stroke:none"/></g></g><g id="g34"><g id="g36"><path d="M 16.445,9.954 C 16.445,9.55 16.282,9.218 15.958,8.958 15.707,8.761 15.323,8.662 14.808,8.662 l -1.476,0 0,4.553 1.227,0 c 0.497,0 0.857,-0.072 1.08,-0.216 0.326,-0.21 0.49,-0.518 0.49,-0.925 0,-0.234 -0.066,-0.443 -0.198,-0.628 -0.133,-0.185 -0.297,-0.307 -0.495,-0.367 l 0,-0.016 c 0.311,-0.067 0.557,-0.195 0.738,-0.384 0.18,-0.189 0.271,-0.431 0.271,-0.725 z M 15.487,12 c 0,0.278 -0.101,0.472 -0.302,0.584 -0.151,0.084 -0.359,0.124 -0.626,0.122 l -0.589,0 0,-1.444 0.535,0 c 0.331,0 0.557,0.047 0.68,0.139 0.201,0.148 0.302,0.348 0.302,0.599 z m 0.3,-2.017 c 0,0.269 -0.11,0.477 -0.332,0.625 -0.163,0.11 -0.429,0.165 -0.799,0.165 l -0.686,0 0,-1.589 0.686,0 c 0.378,0 0.645,0.053 0.799,0.158 0.222,0.15 0.332,0.364 0.332,0.641 z" id="path38" style="fill:#e6e6e6;fill-opacity:1;fill-rule:nonzero;stroke:none"/></g></g><g id="g40"><g id="g42"><path d="m 19.448,9.21 0,-0.548 -2.242,0 0,4.553 0.638,0 0,-4.005 1.604,0 z" id="path44" style="fill:#e6e6e6;fill-opacity:1;fill-rule:nonzero;stroke:none"/></g></g><g id="g46"><g id="g48"><path d="m 22.732,9.203 0,-0.541 -2.716,0 0,4.553 2.665,0 0,-0.535 -2.027,0 0,-1.36 1.914,0 0,-0.534 -1.914,0 0,-1.583 2.078,0 z" id="path50" style="fill:#e6e6e6;fill-opacity:1;fill-rule:nonzero;stroke:none"/></g></g><g id="g52"><g id="g54"><path d="m 27.392,13.215 0,-4.553 -0.628,0 -2.627,3.628 c 0.009,-0.408 0.013,-0.809 0.013,-1.205 l 0,-2.423 -0.631,0 0,4.553 0.673,0 2.578,-3.577 c -0.004,0.374 -0.006,0.762 -0.006,1.164 l 0,2.413 0.628,0 z" id="path56" style="fill:#e6e6e6;fill-opacity:1;fill-rule:nonzero;stroke:none"/></g></g><g id="g58"><g id="g60"><path d="m 31.475,12.622 c 0.47,-0.431 0.706,-0.993 0.706,-1.683 0,-0.691 -0.236,-1.252 -0.706,-1.684 C 31.043,8.86 30.476,8.662 29.773,8.662 l -1.372,0 0,4.553 1.372,0 c 0.705,0 1.272,-0.197 1.702,-0.593 z m 0.051,-1.682 c 0,0.529 -0.18,0.964 -0.541,1.305 -0.299,0.282 -0.702,0.422 -1.212,0.422 l -0.734,0 0,-3.451 0.734,0 c 0.512,0 0.916,0.141 1.212,0.422 0.361,0.344 0.541,0.778 0.541,1.302 z" id="path62" style="fill:#e6e6e6;fill-opacity:1;fill-rule:nonzero;stroke:none"/></g></g></g></g></g></g></svg>