<?xml version="1.0" ?><svg height="56.25" id="svg2" version="1.1" width="56.25" xml:space="preserve" xmlns="http://www.w3.org/2000/svg" xmlns:cc="http://creativecommons.org/ns#" xmlns:dc="http://purl.org/dc/elements/1.1/" xmlns:inkscape="http://www.inkscape.org/namespaces/inkscape" xmlns:rdf="http://www.w3.org/1999/02/22-rdf-syntax-ns#" xmlns:svg="http://www.w3.org/2000/svg"><defs id="defs6"><clipPath id="clipPath16"><path d="M 0,0 0,45 45,45 45,0 0,0" id="path18"/></clipPath></defs><g id="g10" transform="matrix(1.25,0,0,-1.25,0,56.25)"><g id="g12"><g clip-path="url(#clipPath16)" id="g14"><g id="g20"><g id="g22"><g id="g24"><path d="m 9.347,6.027 0,32.946 c 0,0.843 0.684,1.527 1.527,1.527 l 13.349,0 11.43,-11.43 0,-23.043 C 35.653,5.184 34.969,4.5 34.126,4.5 l -23.252,0 c -0.843,0 -1.527,0.684 -1.527,1.527 z" id="path26" style="fill:#2b2b2b;fill-opacity:1;fill-rule:evenodd;stroke:none"/></g></g><g id="g28"><g id="g30"><path d="m 24.223,40.5 11.43,-11.43 -9.903,0 c -0.843,0 -1.527,0.684 -1.527,1.527 l 0,9.903 z" id="path32" style="fill:#525252;fill-opacity:1;fill-rule:evenodd;stroke:none"/></g></g><g id="g34"><g id="g36"><path d="M 17.625,9.95 17.96,9.38 C 17.477,8.837 16.805,8.565 15.947,8.565 c -0.814,0 -1.488,0.263 -2.021,0.788 -0.534,0.526 -0.8,1.212 -0.8,2.058 0,0.847 0.268,1.533 0.806,2.059 0.537,0.525 1.209,0.788 2.015,0.788 0.809,0 1.461,-0.243 1.955,-0.73 l -0.324,-0.624 c -0.127,0.164 -0.339,0.317 -0.636,0.46 -0.297,0.143 -0.618,0.215 -0.964,0.215 -0.601,0 -1.093,-0.199 -1.477,-0.597 -0.384,-0.398 -0.575,-0.916 -0.575,-1.555 0,-0.639 0.193,-1.156 0.579,-1.553 0.386,-0.397 0.877,-0.595 1.473,-0.595 0.687,0 1.236,0.224 1.647,0.671 z" id="path38" style="fill:#e6e6e6;fill-opacity:1;fill-rule:nonzero;stroke:none"/></g></g><g id="g40"><g id="g42"><path d="m 22.471,13.458 c 0.57,-0.523 0.855,-1.202 0.855,-2.039 0,-0.836 -0.285,-1.516 -0.855,-2.039 -0.522,-0.478 -1.209,-0.718 -2.06,-0.718 l -1.662,0 0,5.514 1.662,0 c 0.853,0 1.54,-0.239 2.06,-0.718 z m 0.063,-2.037 c 0,0.64 -0.218,1.167 -0.656,1.581 -0.361,0.34 -0.85,0.511 -1.467,0.511 l -0.889,0 0,-4.179 0.889,0 c 0.619,0 1.108,0.17 1.467,0.511 0.438,0.416 0.656,0.941 0.656,1.576 z" id="path44" style="fill:#e6e6e6;fill-opacity:1;fill-rule:nonzero;stroke:none"/></g></g><g id="g46"><g id="g48"><path d="m 26.394,11.117 1.572,-2.455 -0.936,0 -1.436,2.373 -0.593,0 0,-2.373 -0.773,0 0,5.514 1.557,0 c 0.559,0 1.001,-0.127 1.327,-0.382 0.356,-0.289 0.534,-0.678 0.534,-1.167 0,-0.442 -0.123,-0.788 -0.371,-1.038 -0.247,-0.25 -0.541,-0.407 -0.881,-0.472 z m 0.452,1.494 c 0,0.325 -0.117,0.57 -0.351,0.734 -0.182,0.133 -0.49,0.199 -0.925,0.199 l -0.569,0 0,-1.869 0.569,0 c 0.437,0 0.746,0.064 0.925,0.191 0.234,0.177 0.351,0.425 0.351,0.745 z" id="path50" style="fill:#e6e6e6;fill-opacity:1;fill-rule:nonzero;stroke:none"/></g></g></g></g></g></g></svg>