<?xml version="1.0" ?><svg height="56.25" id="svg2" version="1.1" width="56.25" xml:space="preserve" xmlns="http://www.w3.org/2000/svg" xmlns:cc="http://creativecommons.org/ns#" xmlns:dc="http://purl.org/dc/elements/1.1/" xmlns:inkscape="http://www.inkscape.org/namespaces/inkscape" xmlns:rdf="http://www.w3.org/1999/02/22-rdf-syntax-ns#" xmlns:svg="http://www.w3.org/2000/svg"><defs id="defs6"><clipPath id="clipPath16"><path d="M 0,0 0,45 45,45 45,0 0,0" id="path18"/></clipPath></defs><g id="g10" transform="matrix(1.25,0,0,-1.25,0,56.25)"><g id="g12"><g clip-path="url(#clipPath16)" id="g14"><g id="g20"><g id="g22"><g id="g24"><path d="m 9.347,6.027 0,32.946 c 0,0.843 0.684,1.527 1.527,1.527 l 13.349,0 11.43,-11.43 0,-23.043 C 35.653,5.184 34.969,4.5 34.126,4.5 l -23.252,0 c -0.843,0 -1.527,0.684 -1.527,1.527 z" id="path26" style="fill:#2b2b2b;fill-opacity:1;fill-rule:evenodd;stroke:none"/></g></g><g id="g28"><g id="g30"><path d="m 24.223,40.5 11.43,-11.43 -9.903,0 c -0.843,0 -1.527,0.684 -1.527,1.527 l 0,9.903 z" id="path32" style="fill:#525252;fill-opacity:1;fill-rule:evenodd;stroke:none"/></g></g><g id="g34"><g id="g36"><path d="m 16.727,9.318 0,-0.656 -3.289,0 0,5.514 3.227,0 0,-0.648 -2.454,0 0,-1.646 2.317,0 0,-0.648 -2.317,0 0,-1.916 2.516,0 z" id="path38" style="fill:#e6e6e6;fill-opacity:1;fill-rule:nonzero;stroke:none"/></g></g><g id="g40"><g id="g42"><path d="m 19.885,11.507 1.83,-2.845 -0.937,0 -1.397,2.342 -1.389,-2.342 -0.929,0 1.823,2.845 -1.694,2.669 0.909,0 1.28,-2.15 1.288,2.15 0.909,0 -1.693,-2.669 z" id="path44" style="fill:#e6e6e6;fill-opacity:1;fill-rule:nonzero;stroke:none"/></g></g><g id="g46"><g id="g48"><path d="m 25.593,9.318 0,-0.656 -3.289,0 0,5.514 3.227,0 0,-0.648 -2.454,0 0,-1.646 2.317,0 0,-0.648 -2.317,0 0,-1.916 2.516,0 z" id="path50" style="fill:#e6e6e6;fill-opacity:1;fill-rule:nonzero;stroke:none"/></g></g><g id="g52"><g id="g54"><path d="m 55.574,6.545 0,31.894 c 0,0.816 0.663,1.478 1.478,1.478 l 12.923,0 11.065,-11.065 0,-22.307 c 0,-0.816 -0.662,-1.478 -1.479,-1.478 l -22.509,0 c -0.815,0 -1.478,0.662 -1.478,1.478 z" id="path56" style="fill:none;stroke:#2b2b2b;stroke-width:1.148;stroke-linecap:butt;stroke-linejoin:miter;stroke-miterlimit:10;stroke-opacity:1;stroke-dasharray:none"/></g></g><g id="g58"><g id="g60"><path d="m 62.721,9.736 0,-0.635 -3.185,0 0,5.338 3.124,0 0,-0.627 -2.376,0 0,-1.594 2.244,0 0,-0.627 -2.244,0 0,-1.855 2.437,0 z" id="path62" style="fill:#2b2b2b;fill-opacity:1;fill-rule:nonzero;stroke:none"/></g></g><g id="g64"><g id="g66"><path d="m 65.777,11.855 1.772,-2.754 -0.907,0 -1.352,2.267 -1.345,-2.267 -0.899,0 1.764,2.754 -1.639,2.584 0.88,0 1.239,-2.082 1.247,2.082 0.88,0 -1.64,-2.584 z" id="path68" style="fill:#2b2b2b;fill-opacity:1;fill-rule:nonzero;stroke:none"/></g></g><g id="g70"><g id="g72"><path d="m 71.305,9.736 0,-0.635 -3.185,0 0,5.338 3.124,0 0,-0.627 -2.376,0 0,-1.594 2.244,0 0,-0.627 -2.244,0 0,-1.855 2.437,0 z" id="path74" style="fill:#2b2b2b;fill-opacity:1;fill-rule:nonzero;stroke:none"/></g></g></g></g></g></g></svg>