<?xml version="1.0" ?><svg height="56.25" id="svg2" version="1.1" width="56.25" xml:space="preserve" xmlns="http://www.w3.org/2000/svg" xmlns:cc="http://creativecommons.org/ns#" xmlns:dc="http://purl.org/dc/elements/1.1/" xmlns:inkscape="http://www.inkscape.org/namespaces/inkscape" xmlns:rdf="http://www.w3.org/1999/02/22-rdf-syntax-ns#" xmlns:svg="http://www.w3.org/2000/svg"><defs id="defs6"><clipPath id="clipPath16"><path d="M 0,0 0,45 45,45 45,0 0,0" id="path18"/></clipPath></defs><g id="g10" transform="matrix(1.25,0,0,-1.25,0,56.25)"><g id="g12"><g clip-path="url(#clipPath16)" id="g14"><g id="g20"><g id="g22"><g id="g24"><path d="m 9.347,6.027 0,32.946 c 0,0.843 0.684,1.527 1.527,1.527 l 13.349,0 11.43,-11.43 0,-23.043 C 35.653,5.184 34.969,4.5 34.126,4.5 l -23.252,0 c -0.843,0 -1.527,0.684 -1.527,1.527 z" id="path26" style="fill:#2b2b2b;fill-opacity:1;fill-rule:evenodd;stroke:none"/></g></g><g id="g28"><g id="g30"><path d="m 24.223,40.5 11.43,-11.43 -9.903,0 c -0.843,0 -1.527,0.684 -1.527,1.527 l 0,9.903 z" id="path32" style="fill:#525252;fill-opacity:1;fill-rule:evenodd;stroke:none"/></g></g><g id="g34"><g id="g36"><path d="m 17.024,10.203 c 0,-0.489 -0.188,-0.881 -0.564,-1.176 -0.376,-0.295 -0.851,-0.443 -1.426,-0.443 -0.713,0 -1.31,0.311 -1.791,0.933 l 0.433,0.472 c 0.07,-0.086 0.147,-0.174 0.232,-0.264 0.084,-0.089 0.237,-0.197 0.458,-0.324 0.222,-0.126 0.439,-0.189 0.652,-0.189 0.367,0 0.665,0.09 0.896,0.269 0.23,0.18 0.345,0.431 0.345,0.754 0,0.32 -0.108,0.566 -0.324,0.739 -0.216,0.173 -0.489,0.259 -0.819,0.259 l -0.41,0 0,0.617 0.41,0 c 0.299,0 0.539,0.079 0.72,0.236 0.18,0.157 0.271,0.377 0.271,0.66 0,0.282 -0.1,0.502 -0.301,0.659 -0.2,0.157 -0.447,0.236 -0.741,0.236 -0.448,0 -0.886,-0.211 -1.315,-0.632 l -0.363,0.464 c 0.219,0.24 0.461,0.43 0.728,0.572 0.266,0.142 0.605,0.213 1.016,0.213 0.474,0 0.879,-0.131 1.218,-0.393 0.338,-0.261 0.507,-0.608 0.507,-1.039 0,-0.362 -0.09,-0.642 -0.271,-0.839 -0.181,-0.198 -0.388,-0.333 -0.623,-0.406 l 0,-0.028 c 0.26,-0.046 0.502,-0.186 0.726,-0.417 0.224,-0.232 0.336,-0.543 0.336,-0.933 z" id="path38" style="fill:#e6e6e6;fill-opacity:1;fill-rule:nonzero;stroke:none"/></g></g><g id="g40"><g id="g42"><path d="m 22.963,11.604 0,-2.142 C 22.367,8.866 21.587,8.567 20.622,8.564 c -0.799,0 -1.467,0.264 -2.006,0.793 -0.538,0.528 -0.807,1.216 -0.807,2.064 0,0.843 0.267,1.526 0.801,2.05 0.535,0.524 1.203,0.787 2.004,0.787 0.89,0 1.62,-0.307 2.189,-0.921 l 0.039,-0.039 -0.527,-0.488 c -0.447,0.523 -1.014,0.784 -1.701,0.784 -0.58,0 -1.059,-0.196 -1.438,-0.587 -0.378,-0.392 -0.568,-0.92 -0.568,-1.586 0,-0.661 0.195,-1.188 0.584,-1.582 0.389,-0.395 0.878,-0.592 1.469,-0.592 0.666,0 1.164,0.149 1.494,0.445 l 0.055,0.059 0,1.221 -1.487,0 0,0.632 2.24,0 z" id="path44" style="fill:#e6e6e6;fill-opacity:1;fill-rule:nonzero;stroke:none"/></g></g><g id="g46"><g id="g48"><path d="m 27.506,12.603 c 0,-0.489 -0.178,-0.883 -0.535,-1.182 -0.304,-0.26 -0.749,-0.392 -1.334,-0.394 l -0.777,0 0,-2.365 -0.772,0 0,5.514 1.549,0 c 0.585,0 1.03,-0.13 1.334,-0.391 0.357,-0.309 0.535,-0.703 0.535,-1.182 z M 26.37,11.866 c 0.224,0.166 0.336,0.412 0.336,0.737 0,0.325 -0.112,0.567 -0.336,0.726 -0.202,0.143 -0.468,0.214 -0.796,0.214 l -0.714,0 0,-1.884 0.714,0 c 0.331,0 0.596,0.069 0.796,0.207 z" id="path50" style="fill:#e6e6e6;fill-opacity:1;fill-rule:nonzero;stroke:none"/></g></g></g></g></g></g></svg>