<?xml version="1.0" ?><svg height="56.25" id="svg2" version="1.1" width="56.25" xml:space="preserve" xmlns="http://www.w3.org/2000/svg" xmlns:cc="http://creativecommons.org/ns#" xmlns:dc="http://purl.org/dc/elements/1.1/" xmlns:inkscape="http://www.inkscape.org/namespaces/inkscape" xmlns:rdf="http://www.w3.org/1999/02/22-rdf-syntax-ns#" xmlns:svg="http://www.w3.org/2000/svg"><defs id="defs6"><clipPath id="clipPath16"><path d="M 0,0 0,45 45,45 45,0 0,0" id="path18"/></clipPath></defs><g id="g10" transform="matrix(1.25,0,0,-1.25,0,56.25)"><g id="g12"><g clip-path="url(#clipPath16)" id="g14"><g id="g20"><g id="g22"><g id="g24"><path d="m 9.347,6.027 0,32.946 c 0,0.843 0.684,1.527 1.527,1.527 l 13.349,0 11.43,-11.43 0,-23.043 C 35.653,5.184 34.969,4.5 34.126,4.5 l -23.252,0 c -0.843,0 -1.527,0.684 -1.527,1.527 z" id="path26" style="fill:#2b2b2b;fill-opacity:1;fill-rule:evenodd;stroke:none"/></g></g><g id="g28"><g id="g30"><path d="m 24.223,40.5 11.43,-11.43 -9.903,0 c -0.843,0 -1.527,0.684 -1.527,1.527 l 0,9.903 z" id="path32" style="fill:#525252;fill-opacity:1;fill-rule:evenodd;stroke:none"/></g></g><g id="g34"><g id="g36"><path d="m 18.791,14.176 0.504,-5.514 -0.769,0 -0.359,4.355 -0.023,0 -1.686,-4.402 -0.441,0 -1.686,4.402 -0.023,0 -0.351,-4.355 -0.769,0 0.496,5.514 0.96,0 1.588,-4.258 0.019,0 1.588,4.258 0.952,0 z" id="path38" style="fill:#e6e6e6;fill-opacity:1;fill-rule:nonzero;stroke:none"/></g></g><g id="g40"><g id="g42"><path d="m 23.677,12.603 c 0,-0.489 -0.178,-0.883 -0.535,-1.182 -0.304,-0.26 -0.749,-0.392 -1.334,-0.394 l -0.777,0 0,-2.365 -0.772,0 0,5.514 1.549,0 c 0.585,0 1.03,-0.13 1.334,-0.391 0.357,-0.309 0.535,-0.703 0.535,-1.182 z m -1.136,-0.737 c 0.224,0.166 0.336,0.412 0.336,0.737 0,0.325 -0.112,0.567 -0.336,0.726 -0.202,0.143 -0.468,0.214 -0.796,0.214 l -0.714,0 0,-1.884 0.714,0 c 0.331,0 0.596,0.069 0.796,0.207 z" id="path44" style="fill:#e6e6e6;fill-opacity:1;fill-rule:nonzero;stroke:none"/></g></g><g id="g46"><g id="g48"><path d="m 28.223,9.302 0,-0.64 -3.722,0 -0.113,0.519 1.951,1.846 c 0.275,0.265 0.493,0.517 0.653,0.755 0.16,0.238 0.24,0.495 0.24,0.77 0,0.315 -0.103,0.573 -0.308,0.773 -0.206,0.2 -0.481,0.3 -0.827,0.3 -0.539,0 -0.989,-0.296 -1.35,-0.889 l -0.406,0.456 c 0.112,0.245 0.32,0.484 0.626,0.716 0.306,0.233 0.699,0.35 1.18,0.35 0.554,0 1.001,-0.15 1.339,-0.449 0.338,-0.299 0.507,-0.691 0.507,-1.175 0,-0.213 -0.038,-0.421 -0.113,-0.624 -0.076,-0.203 -0.177,-0.388 -0.304,-0.556 -0.128,-0.168 -0.241,-0.304 -0.34,-0.408 -0.099,-0.104 -0.212,-0.214 -0.339,-0.332 -0.032,-0.026 -0.055,-0.046 -0.071,-0.062 l -1.416,-1.35 2.813,0 z" id="path50" style="fill:#e6e6e6;fill-opacity:1;fill-rule:nonzero;stroke:none"/></g></g></g></g></g></g></svg>