<?xml version="1.0" ?><svg height="56.25" id="svg2" version="1.1" width="56.25" xml:space="preserve" xmlns="http://www.w3.org/2000/svg" xmlns:cc="http://creativecommons.org/ns#" xmlns:dc="http://purl.org/dc/elements/1.1/" xmlns:inkscape="http://www.inkscape.org/namespaces/inkscape" xmlns:rdf="http://www.w3.org/1999/02/22-rdf-syntax-ns#" xmlns:svg="http://www.w3.org/2000/svg"><defs id="defs6"><clipPath id="clipPath16"><path d="M 0,0 0,45 45,45 45,0 0,0" id="path18"/></clipPath></defs><g id="g10" transform="matrix(1.25,0,0,-1.25,0,56.25)"><g id="g12"><g clip-path="url(#clipPath16)" id="g14"><g id="g20"><g id="g22"><g id="g24"><path d="m 9.347,6.027 0,32.946 c 0,0.843 0.684,1.527 1.527,1.527 l 13.349,0 11.43,-11.43 0,-23.043 C 35.653,5.184 34.969,4.5 34.126,4.5 l -23.252,0 c -0.843,0 -1.527,0.684 -1.527,1.527 z" id="path26" style="fill:#2b2b2b;fill-opacity:1;fill-rule:evenodd;stroke:none"/></g></g><g id="g28"><g id="g30"><path d="m 24.223,40.5 11.43,-11.43 -9.903,0 c -0.843,0 -1.527,0.684 -1.527,1.527 l 0,9.903 z" id="path32" style="fill:#525252;fill-opacity:1;fill-rule:evenodd;stroke:none"/></g></g><g id="g34"><g id="g36"><path d="m 17.991,13.477 c 0.549,-0.52 0.824,-1.209 0.824,-2.066 0,-0.857 -0.275,-1.546 -0.824,-2.066 -0.548,-0.52 -1.222,-0.781 -2.021,-0.781 -0.798,0 -1.472,0.261 -2.021,0.781 -0.549,0.52 -0.823,1.209 -0.823,2.066 0,0.857 0.274,1.546 0.823,2.066 0.549,0.52 1.223,0.781 2.021,0.781 0.799,0 1.473,-0.261 2.021,-0.781 z M 17.432,9.858 c 0.394,0.392 0.591,0.915 0.591,1.571 0,0.655 -0.197,1.179 -0.591,1.57 -0.395,0.392 -0.882,0.587 -1.462,0.587 -0.58,0 -1.067,-0.195 -1.461,-0.587 -0.394,-0.391 -0.591,-0.915 -0.591,-1.57 0,-0.651 0.197,-1.173 0.591,-1.567 0.394,-0.394 0.881,-0.591 1.461,-0.591 0.58,0 1.067,0.195 1.462,0.587 z" id="path38" style="fill:#e6e6e6;fill-opacity:1;fill-rule:nonzero;stroke:none"/></g></g><g id="g40"><g id="g42"><path d="m 23.439,13.458 c 0.57,-0.523 0.855,-1.203 0.855,-2.039 0,-0.837 -0.285,-1.516 -0.855,-2.039 C 22.916,8.901 22.23,8.662 21.379,8.662 l -1.662,0 0,5.514 1.662,0 c 0.853,0 1.54,-0.24 2.06,-0.718 z m 0.063,-2.037 c 0,0.64 -0.219,1.166 -0.656,1.58 -0.361,0.341 -0.851,0.511 -1.467,0.511 l -0.89,0 0,-4.179 0.89,0 c 0.619,0 1.108,0.171 1.467,0.511 0.437,0.417 0.656,0.942 0.656,1.577 z" id="path44" style="fill:#e6e6e6;fill-opacity:1;fill-rule:nonzero;stroke:none"/></g></g><g id="g46"><g id="g48"><path d="m 30.549,14.176 0.504,-5.514 -0.769,0 -0.359,4.355 -0.023,0 -1.686,-4.402 -0.441,0 -1.686,4.402 -0.023,0 -0.351,-4.355 -0.769,0 0.496,5.514 0.96,0 1.588,-4.258 0.019,0 1.588,4.258 0.952,0 z" id="path50" style="fill:#e6e6e6;fill-opacity:1;fill-rule:nonzero;stroke:none"/></g></g></g></g></g></g></svg>