<?xml version="1.0" ?><svg height="56.25" id="svg2" version="1.1" width="56.25" xml:space="preserve" xmlns="http://www.w3.org/2000/svg" xmlns:cc="http://creativecommons.org/ns#" xmlns:dc="http://purl.org/dc/elements/1.1/" xmlns:inkscape="http://www.inkscape.org/namespaces/inkscape" xmlns:rdf="http://www.w3.org/1999/02/22-rdf-syntax-ns#" xmlns:svg="http://www.w3.org/2000/svg"><defs id="defs6"><clipPath id="clipPath16"><path d="M 0,0 0,45 45,45 45,0 0,0" id="path18"/></clipPath></defs><g id="g10" transform="matrix(1.25,0,0,-1.25,0,56.25)"><g id="g12"><g clip-path="url(#clipPath16)" id="g14"><g id="g20"><g id="g22"><g id="g24"><path d="m 9.347,6.027 0,32.946 c 0,0.843 0.684,1.527 1.527,1.527 l 13.349,0 11.43,-11.43 0,-23.043 C 35.653,5.184 34.969,4.5 34.126,4.5 l -23.252,0 c -0.843,0 -1.527,0.684 -1.527,1.527 z" id="path26" style="fill:#2b2b2b;fill-opacity:1;fill-rule:evenodd;stroke:none"/></g></g><g id="g28"><g id="g30"><path d="m 24.223,40.5 11.43,-11.43 -9.903,0 c -0.843,0 -1.527,0.684 -1.527,1.527 l 0,9.903 z" id="path32" style="fill:#525252;fill-opacity:1;fill-rule:evenodd;stroke:none"/></g></g><g id="g34"><g id="g36"><path d="m 17.992,13.478 c 0.549,-0.521 0.823,-1.209 0.823,-2.067 0,-0.857 -0.274,-1.545 -0.823,-2.066 -0.549,-0.52 -1.223,-0.78 -2.022,-0.78 -0.798,0 -1.472,0.26 -2.021,0.78 -0.549,0.521 -0.823,1.209 -0.823,2.066 0,0.858 0.274,1.546 0.823,2.067 0.549,0.52 1.223,0.78 2.021,0.78 0.799,0 1.473,-0.26 2.022,-0.78 z m -0.56,-3.62 c 0.394,0.392 0.591,0.915 0.591,1.571 0,0.656 -0.197,1.179 -0.591,1.571 -0.394,0.391 -0.881,0.587 -1.462,0.587 -0.58,0 -1.067,-0.196 -1.461,-0.587 -0.394,-0.392 -0.591,-0.915 -0.591,-1.571 0,-0.65 0.197,-1.173 0.591,-1.567 0.394,-0.394 0.881,-0.591 1.461,-0.591 0.581,0 1.068,0.196 1.462,0.587 z" id="path38" style="fill:#e6e6e6;fill-opacity:1;fill-rule:nonzero;stroke:none"/></g></g><g id="g40"><g id="g42"><path d="m 23.049,14.176 0,-0.648 -1.553,0 0,-4.866 -0.772,0 0,4.866 -1.561,0 0,0.648 3.886,0 z" id="path44" style="fill:#e6e6e6;fill-opacity:1;fill-rule:nonzero;stroke:none"/></g></g><g id="g46"><g id="g48"><path d="M 27.908,9.95 28.243,9.38 C 27.76,8.837 27.088,8.565 26.23,8.565 c -0.814,0 -1.488,0.263 -2.021,0.788 -0.534,0.526 -0.8,1.212 -0.8,2.058 0,0.847 0.268,1.533 0.806,2.059 0.537,0.525 1.209,0.788 2.015,0.788 0.809,0 1.461,-0.243 1.955,-0.73 l -0.324,-0.624 c -0.127,0.164 -0.339,0.317 -0.636,0.46 -0.297,0.143 -0.618,0.215 -0.964,0.215 -0.601,0 -1.093,-0.199 -1.477,-0.597 -0.384,-0.398 -0.575,-0.916 -0.575,-1.555 0,-0.639 0.193,-1.156 0.579,-1.553 0.386,-0.397 0.877,-0.595 1.473,-0.595 0.687,0 1.236,0.224 1.647,0.671 z" id="path50" style="fill:#e6e6e6;fill-opacity:1;fill-rule:nonzero;stroke:none"/></g></g></g></g></g></g></svg>