<?xml version="1.0" ?><svg height="56.25" id="svg2" version="1.1" width="56.25" xml:space="preserve" xmlns="http://www.w3.org/2000/svg" xmlns:cc="http://creativecommons.org/ns#" xmlns:dc="http://purl.org/dc/elements/1.1/" xmlns:inkscape="http://www.inkscape.org/namespaces/inkscape" xmlns:rdf="http://www.w3.org/1999/02/22-rdf-syntax-ns#" xmlns:svg="http://www.w3.org/2000/svg"><defs id="defs6"><clipPath id="clipPath16"><path d="M 0,0 0,45 45,45 45,0 0,0" id="path18"/></clipPath></defs><g id="g10" transform="matrix(1.25,0,0,-1.25,0,56.25)"><g id="g12"><g clip-path="url(#clipPath16)" id="g14"><g id="g20"><g id="g22"><g id="g24"><path d="m 9.347,6.027 0,32.946 c 0,0.843 0.684,1.527 1.527,1.527 l 13.349,0 11.43,-11.43 0,-23.043 C 35.653,5.184 34.969,4.5 34.126,4.5 l -23.252,0 c -0.843,0 -1.527,0.684 -1.527,1.527 z" id="path26" style="fill:#2b2b2b;fill-opacity:1;fill-rule:evenodd;stroke:none"/></g></g><g id="g28"><g id="g30"><path d="m 24.223,40.5 11.43,-11.43 -9.903,0 c -0.843,0 -1.527,0.684 -1.527,1.527 l 0,9.903 z" id="path32" style="fill:#525252;fill-opacity:1;fill-rule:evenodd;stroke:none"/></g></g><g id="g34"><g id="g36"><path d="m 17.992,13.478 c 0.549,-0.521 0.823,-1.209 0.823,-2.067 0,-0.857 -0.274,-1.545 -0.823,-2.066 -0.549,-0.52 -1.223,-0.78 -2.022,-0.78 -0.798,0 -1.472,0.26 -2.021,0.78 -0.549,0.521 -0.823,1.209 -0.823,2.066 0,0.858 0.274,1.546 0.823,2.067 0.549,0.52 1.223,0.78 2.021,0.78 0.799,0 1.473,-0.26 2.022,-0.78 z m -0.56,-3.62 c 0.394,0.392 0.591,0.915 0.591,1.571 0,0.656 -0.197,1.179 -0.591,1.571 -0.394,0.391 -0.881,0.587 -1.462,0.587 -0.58,0 -1.067,-0.196 -1.461,-0.587 -0.394,-0.392 -0.591,-0.915 -0.591,-1.571 0,-0.65 0.197,-1.173 0.591,-1.567 0.394,-0.394 0.881,-0.591 1.461,-0.591 0.581,0 1.068,0.196 1.462,0.587 z" id="path38" style="fill:#e6e6e6;fill-opacity:1;fill-rule:nonzero;stroke:none"/></g></g><g id="g40"><g id="g42"><path d="m 23.049,14.176 0,-0.648 -1.553,0 0,-4.866 -0.772,0 0,4.866 -1.561,0 0,0.648 3.886,0 z" id="path44" style="fill:#e6e6e6;fill-opacity:1;fill-rule:nonzero;stroke:none"/></g></g><g id="g46"><g id="g48"><path d="m 28.563,11.605 0,-2.143 C 27.968,8.867 27.187,8.567 26.222,8.565 c -0.798,0 -1.467,0.264 -2.006,0.792 -0.538,0.528 -0.807,1.216 -0.807,2.064 0,0.843 0.267,1.527 0.802,2.051 0.534,0.524 1.202,0.786 2.003,0.786 0.89,0 1.62,-0.307 2.189,-0.921 l 0.039,-0.039 -0.526,-0.488 c -0.448,0.523 -1.015,0.785 -1.702,0.785 -0.58,0 -1.059,-0.196 -1.438,-0.588 -0.378,-0.391 -0.567,-0.92 -0.567,-1.586 0,-0.661 0.194,-1.188 0.583,-1.582 0.389,-0.394 0.879,-0.591 1.469,-0.591 0.666,0 1.164,0.148 1.495,0.445 l 0.054,0.058 0,1.222 -1.486,0 0,0.632 2.239,0 z" id="path50" style="fill:#e6e6e6;fill-opacity:1;fill-rule:nonzero;stroke:none"/></g></g></g></g></g></g></svg>