<?xml version="1.0" ?><svg height="56.25" id="svg2" version="1.1" width="56.25" xml:space="preserve" xmlns="http://www.w3.org/2000/svg" xmlns:cc="http://creativecommons.org/ns#" xmlns:dc="http://purl.org/dc/elements/1.1/" xmlns:inkscape="http://www.inkscape.org/namespaces/inkscape" xmlns:rdf="http://www.w3.org/1999/02/22-rdf-syntax-ns#" xmlns:svg="http://www.w3.org/2000/svg"><defs id="defs6"><clipPath id="clipPath16"><path d="M 0,0 0,45 45,45 45,0 0,0" id="path18"/></clipPath></defs><g id="g10" transform="matrix(1.25,0,0,-1.25,0,56.25)"><g id="g12"><g clip-path="url(#clipPath16)" id="g14"><g id="g20"><g id="g22"><g id="g24"><path d="m 9.347,6.027 0,32.946 c 0,0.843 0.684,1.527 1.527,1.527 l 13.349,0 11.43,-11.43 0,-23.043 C 35.653,5.184 34.969,4.5 34.126,4.5 l -23.252,0 c -0.843,0 -1.527,0.684 -1.527,1.527 z" id="path26" style="fill:#2b2b2b;fill-opacity:1;fill-rule:evenodd;stroke:none"/></g></g><g id="g28"><g id="g30"><path d="m 24.223,40.5 11.43,-11.43 -9.903,0 c -0.843,0 -1.527,0.684 -1.527,1.527 l 0,9.903 z" id="path32" style="fill:#525252;fill-opacity:1;fill-rule:evenodd;stroke:none"/></g></g><g id="g34"><g id="g36"><path d="m 17.992,13.478 c 0.549,-0.521 0.823,-1.209 0.823,-2.067 0,-0.857 -0.274,-1.545 -0.823,-2.066 -0.549,-0.52 -1.223,-0.78 -2.022,-0.78 -0.798,0 -1.472,0.26 -2.021,0.78 -0.549,0.521 -0.823,1.209 -0.823,2.066 0,0.858 0.274,1.546 0.823,2.067 0.549,0.52 1.223,0.78 2.021,0.78 0.799,0 1.473,-0.26 2.022,-0.78 z m -0.56,-3.62 c 0.394,0.392 0.591,0.915 0.591,1.571 0,0.656 -0.197,1.179 -0.591,1.571 -0.394,0.391 -0.881,0.587 -1.462,0.587 -0.58,0 -1.067,-0.196 -1.461,-0.587 -0.394,-0.392 -0.591,-0.915 -0.591,-1.571 0,-0.65 0.197,-1.173 0.591,-1.567 0.394,-0.394 0.881,-0.591 1.461,-0.591 0.581,0 1.068,0.196 1.462,0.587 z" id="path38" style="fill:#e6e6e6;fill-opacity:1;fill-rule:nonzero;stroke:none"/></g></g><g id="g40"><g id="g42"><path d="m 23.049,14.176 0,-0.648 -1.553,0 0,-4.866 -0.772,0 0,4.866 -1.561,0 0,0.648 3.886,0 z" id="path44" style="fill:#e6e6e6;fill-opacity:1;fill-rule:nonzero;stroke:none"/></g></g><g id="g46"><g id="g48"><path d="m 27.139,12.604 c 0,-0.489 -0.178,-0.884 -0.534,-1.183 -0.305,-0.26 -0.75,-0.391 -1.335,-0.394 l -0.776,0 0,-2.365 -0.773,0 0,5.514 1.549,0 c 0.585,0 1.03,-0.13 1.335,-0.39 0.356,-0.31 0.534,-0.704 0.534,-1.182 z m -1.135,-0.738 c 0.223,0.166 0.335,0.412 0.335,0.738 0,0.325 -0.112,0.567 -0.335,0.725 -0.203,0.143 -0.469,0.215 -0.796,0.215 l -0.714,0 0,-1.885 0.714,0 c 0.33,0 0.595,0.069 0.796,0.207 z" id="path50" style="fill:#e6e6e6;fill-opacity:1;fill-rule:nonzero;stroke:none"/></g></g><g id="g52"><g id="g54"><path d="m 51.449,7.295 0,31.894 c 0,0.816 0.663,1.478 1.478,1.478 l 12.923,0 11.065,-11.065 0,-22.307 c 0,-0.816 -0.662,-1.478 -1.479,-1.478 l -22.509,0 c -0.815,0 -1.478,0.662 -1.478,1.478 z" id="path56" style="fill:none;stroke:#2b2b2b;stroke-width:1.148;stroke-linecap:butt;stroke-linejoin:miter;stroke-miterlimit:10;stroke-opacity:1;stroke-dasharray:none"/></g></g><g id="g58"><g id="g60"><path d="m 65.85,40.667 11.065,-11.065 -9.587,0 c -0.816,0 -1.478,0.662 -1.478,1.478 l 0,9.587 z" id="path62" style="fill:none;stroke:#2b2b2b;stroke-width:1.148;stroke-linecap:butt;stroke-linejoin:round;stroke-miterlimit:10;stroke-opacity:1;stroke-dasharray:none"/></g></g><g id="g64"><g id="g66"><path d="m 59.82,14.513 c 0.531,-0.504 0.797,-1.171 0.797,-2 0,-0.83 -0.266,-1.497 -0.797,-2.001 -0.532,-0.503 -1.184,-0.755 -1.957,-0.755 -0.773,0 -1.426,0.252 -1.957,0.755 -0.532,0.504 -0.797,1.171 -0.797,2.001 0,0.829 0.265,1.496 0.797,2 0.531,0.503 1.184,0.755 1.957,0.755 0.773,0 1.425,-0.252 1.957,-0.755 z m -0.543,-3.504 c 0.382,0.379 0.573,0.886 0.573,1.52 0,0.635 -0.191,1.142 -0.573,1.521 -0.381,0.379 -0.853,0.568 -1.414,0.568 -0.562,0 -1.033,-0.189 -1.415,-0.568 -0.382,-0.379 -0.572,-0.886 -0.572,-1.521 0,-0.629 0.19,-1.135 0.572,-1.516 0.382,-0.382 0.853,-0.573 1.415,-0.573 0.561,0 1.033,0.19 1.414,0.569 z" id="path68" style="fill:#2b2b2b;fill-opacity:1;fill-rule:nonzero;stroke:none"/></g></g><g id="g70"><g id="g72"><path d="m 64.715,15.189 0,-0.627 -1.503,0 0,-4.711 -0.748,0 0,4.711 -1.511,0 0,0.627 3.762,0 z" id="path74" style="fill:#2b2b2b;fill-opacity:1;fill-rule:nonzero;stroke:none"/></g></g><g id="g76"><g id="g78"><path d="m 68.674,13.667 c 0,-0.474 -0.172,-0.855 -0.517,-1.145 -0.295,-0.252 -0.726,-0.379 -1.292,-0.382 l -0.752,0 0,-2.289 -0.748,0 0,5.338 1.5,0 c 0.566,0 0.997,-0.126 1.292,-0.378 0.345,-0.3 0.517,-0.681 0.517,-1.144 z m -1.099,-0.714 c 0.217,0.161 0.325,0.399 0.325,0.714 0,0.314 -0.108,0.549 -0.325,0.702 -0.196,0.139 -0.453,0.208 -0.771,0.208 l -0.691,0 0,-1.825 0.691,0 c 0.32,0 0.577,0.067 0.771,0.201 z" id="path80" style="fill:#2b2b2b;fill-opacity:1;fill-rule:nonzero;stroke:none"/></g></g></g></g></g></g></svg>