<?xml version="1.0" ?><svg height="56.25" id="svg2" version="1.1" width="56.25" xml:space="preserve" xmlns="http://www.w3.org/2000/svg" xmlns:cc="http://creativecommons.org/ns#" xmlns:dc="http://purl.org/dc/elements/1.1/" xmlns:inkscape="http://www.inkscape.org/namespaces/inkscape" xmlns:rdf="http://www.w3.org/1999/02/22-rdf-syntax-ns#" xmlns:svg="http://www.w3.org/2000/svg"><defs id="defs6"><clipPath id="clipPath16"><path d="M 0,0 0,45 45,45 45,0 0,0" id="path18"/></clipPath></defs><g id="g10" transform="matrix(1.25,0,0,-1.25,0,56.25)"><g id="g12"><g clip-path="url(#clipPath16)" id="g14"><g id="g20"><g id="g22"><g id="g24"><path d="m 9.347,6.027 0,32.946 c 0,0.843 0.684,1.527 1.527,1.527 l 13.349,0 11.43,-11.43 0,-23.043 C 35.653,5.184 34.969,4.5 34.126,4.5 l -23.252,0 c -0.843,0 -1.527,0.684 -1.527,1.527 z" id="path26" style="fill:#2b2b2b;fill-opacity:1;fill-rule:evenodd;stroke:none"/></g></g><g id="g28"><g id="g30"><path d="m 24.223,40.5 11.43,-11.43 -9.903,0 c -0.843,0 -1.527,0.684 -1.527,1.527 l 0,9.903 z" id="path32" style="fill:#525252;fill-opacity:1;fill-rule:evenodd;stroke:none"/></g></g><g id="g34"><g id="g36"><path d="m 16.684,12.435 c 0,-0.469 -0.171,-0.846 -0.512,-1.132 -0.291,-0.249 -0.717,-0.375 -1.277,-0.377 l -0.744,0 0,-2.264 -0.739,0 0,5.278 1.483,0 c 0.56,0 0.986,-0.125 1.277,-0.374 0.341,-0.296 0.512,-0.673 0.512,-1.131 z m -1.087,-0.706 c 0.214,0.159 0.321,0.394 0.321,0.706 0,0.311 -0.107,0.543 -0.321,0.694 -0.194,0.137 -0.448,0.206 -0.762,0.206 l -0.684,0 0,-1.804 0.684,0 c 0.316,0 0.57,0.066 0.762,0.198 z" id="path38" style="fill:#e6e6e6;fill-opacity:1;fill-rule:nonzero;stroke:none"/></g></g><g id="g40"><g id="g42"><path d="m 21.48,9.895 0.321,-0.546 c -0.463,-0.52 -1.106,-0.78 -1.928,-0.78 -0.779,0 -1.424,0.251 -1.934,0.754 -0.511,0.503 -0.766,1.16 -0.766,1.971 0,0.81 0.257,1.467 0.771,1.97 0.514,0.503 1.157,0.754 1.929,0.754 0.775,0 1.399,-0.233 1.872,-0.698 l -0.31,-0.598 c -0.122,0.157 -0.325,0.304 -0.609,0.441 -0.284,0.137 -0.591,0.205 -0.923,0.205 -0.575,0 -1.046,-0.19 -1.413,-0.571 -0.368,-0.381 -0.551,-0.877 -0.551,-1.489 0,-0.611 0.184,-1.106 0.554,-1.486 0.37,-0.38 0.84,-0.57 1.41,-0.57 0.658,0 1.183,0.214 1.577,0.643 z" id="path44" style="fill:#e6e6e6;fill-opacity:1;fill-rule:nonzero;stroke:none"/></g></g><g id="g46"><g id="g48"><path d="m 24.666,11.385 1.752,-2.723 -0.897,0 -1.337,2.241 -1.329,-2.241 -0.889,0 1.744,2.723 -1.621,2.555 0.87,0 1.225,-2.058 1.233,2.058 0.87,0 -1.621,-2.555 z" id="path50" style="fill:#e6e6e6;fill-opacity:1;fill-rule:nonzero;stroke:none"/></g></g></g></g></g></g></svg>