<?xml version="1.0" ?><svg height="56.25" id="svg2" version="1.1" width="56.25" xml:space="preserve" xmlns="http://www.w3.org/2000/svg" xmlns:cc="http://creativecommons.org/ns#" xmlns:dc="http://purl.org/dc/elements/1.1/" xmlns:inkscape="http://www.inkscape.org/namespaces/inkscape" xmlns:rdf="http://www.w3.org/1999/02/22-rdf-syntax-ns#" xmlns:svg="http://www.w3.org/2000/svg"><defs id="defs6"><clipPath id="clipPath16"><path d="M 0,0 0,45 45,45 45,0 0,0" id="path18"/></clipPath></defs><g id="g10" transform="matrix(1.25,0,0,-1.25,0,56.25)"><g id="g12"><g clip-path="url(#clipPath16)" id="g14"><g id="g20"><g id="g22"><g id="g24"><path d="m 9.347,6.027 0,32.946 c 0,0.843 0.684,1.527 1.527,1.527 l 13.349,0 11.43,-11.43 0,-23.043 C 35.653,5.184 34.969,4.5 34.126,4.5 l -23.252,0 c -0.843,0 -1.527,0.684 -1.527,1.527 z" id="path26" style="fill:#2b2b2b;fill-opacity:1;fill-rule:evenodd;stroke:none"/></g></g><g id="g28"><g id="g30"><path d="m 24.223,40.5 11.43,-11.43 -9.903,0 c -0.843,0 -1.527,0.684 -1.527,1.527 l 0,9.903 z" id="path32" style="fill:#525252;fill-opacity:1;fill-rule:evenodd;stroke:none"/></g></g><g id="g34"><g id="g36"><path d="m 16.856,12.604 c 0,-0.489 -0.178,-0.884 -0.534,-1.183 -0.305,-0.26 -0.75,-0.391 -1.335,-0.394 l -0.776,0 0,-2.365 -0.773,0 0,5.514 1.549,0 c 0.585,0 1.03,-0.13 1.335,-0.39 0.356,-0.31 0.534,-0.704 0.534,-1.182 z m -1.135,-0.738 c 0.223,0.166 0.335,0.412 0.335,0.738 0,0.325 -0.112,0.567 -0.335,0.725 -0.203,0.143 -0.469,0.215 -0.796,0.215 l -0.714,0 0,-1.885 0.714,0 c 0.33,0 0.595,0.069 0.796,0.207 z" id="path38" style="fill:#e6e6e6;fill-opacity:1;fill-rule:nonzero;stroke:none"/></g></g><g id="g40"><g id="g42"><path d="m 21.051,10.196 c 0,-0.484 -0.192,-0.883 -0.577,-1.198 -0.351,-0.289 -0.801,-0.433 -1.35,-0.433 -0.224,0 -0.435,0.031 -0.634,0.094 -0.199,0.062 -0.376,0.15 -0.531,0.265 -0.155,0.114 -0.273,0.21 -0.353,0.287 -0.081,0.076 -0.168,0.171 -0.262,0.283 l 0.453,0.519 c 0.159,-0.214 0.362,-0.399 0.611,-0.557 0.248,-0.157 0.512,-0.236 0.79,-0.236 0.309,0 0.566,0.084 0.771,0.252 0.204,0.168 0.306,0.394 0.306,0.677 0,0.133 -0.03,0.252 -0.088,0.359 -0.059,0.107 -0.148,0.198 -0.267,0.275 -0.12,0.077 -0.209,0.13 -0.268,0.16 -0.058,0.03 -0.148,0.068 -0.271,0.115 -0.432,0.172 -0.724,0.296 -0.878,0.371 -0.223,0.101 -0.408,0.231 -0.554,0.39 -0.239,0.25 -0.359,0.57 -0.359,0.96 0,0.427 0.168,0.781 0.504,1.061 0.325,0.271 0.749,0.408 1.272,0.41 0.601,0 1.127,-0.238 1.58,-0.714 L 20.54,13.009 c -0.372,0.396 -0.776,0.593 -1.213,0.593 -0.284,0 -0.515,-0.067 -0.693,-0.201 -0.178,-0.134 -0.267,-0.323 -0.267,-0.567 0,-0.123 0.019,-0.23 0.058,-0.324 0.039,-0.094 0.098,-0.174 0.176,-0.24 0.078,-0.066 0.151,-0.119 0.22,-0.156 0.069,-0.038 0.154,-0.078 0.256,-0.119 l 1.014,-0.426 c 0.266,-0.122 0.474,-0.27 0.625,-0.444 0.223,-0.279 0.335,-0.588 0.335,-0.929 z" id="path44" style="fill:#e6e6e6;fill-opacity:1;fill-rule:nonzero;stroke:none"/></g></g><g id="g46"><g id="g48"><path d="m 25.667,13.458 c 0.57,-0.523 0.855,-1.202 0.855,-2.039 0,-0.836 -0.285,-1.516 -0.855,-2.039 -0.522,-0.478 -1.209,-0.718 -2.06,-0.718 l -1.662,0 0,5.514 1.662,0 c 0.853,0 1.54,-0.239 2.06,-0.718 z m 0.063,-2.037 c 0,0.64 -0.218,1.167 -0.656,1.581 -0.361,0.34 -0.85,0.511 -1.467,0.511 l -0.889,0 0,-4.179 0.889,0 c 0.619,0 1.108,0.17 1.467,0.511 0.438,0.416 0.656,0.941 0.656,1.576 z" id="path50" style="fill:#e6e6e6;fill-opacity:1;fill-rule:nonzero;stroke:none"/></g></g></g></g></g></g></svg>