<?xml version="1.0" ?><svg height="56.25" id="svg2" version="1.1" width="56.25" xml:space="preserve" xmlns="http://www.w3.org/2000/svg" xmlns:cc="http://creativecommons.org/ns#" xmlns:dc="http://purl.org/dc/elements/1.1/" xmlns:inkscape="http://www.inkscape.org/namespaces/inkscape" xmlns:rdf="http://www.w3.org/1999/02/22-rdf-syntax-ns#" xmlns:svg="http://www.w3.org/2000/svg"><defs id="defs6"><clipPath id="clipPath16"><path d="M 0,0 0,45 45,45 45,0 0,0" id="path18"/></clipPath></defs><g id="g10" transform="matrix(1.25,0,0,-1.25,0,56.25)"><g id="g12"><g clip-path="url(#clipPath16)" id="g14"><g id="g20"><g id="g22"><g id="g24"><path d="m 9.347,6.027 0,32.946 c 0,0.843 0.684,1.527 1.527,1.527 l 13.349,0 11.43,-11.43 0,-23.043 C 35.653,5.184 34.969,4.5 34.126,4.5 l -23.252,0 c -0.843,0 -1.527,0.684 -1.527,1.527 z" id="path26" style="fill:#2b2b2b;fill-opacity:1;fill-rule:evenodd;stroke:none"/></g></g><g id="g28"><g id="g30"><path d="m 24.223,40.5 11.43,-11.43 -9.903,0 c -0.843,0 -1.527,0.684 -1.527,1.527 l 0,9.903 z" id="path32" style="fill:#525252;fill-opacity:1;fill-rule:evenodd;stroke:none"/></g></g><g id="g34"><g id="g36"><path d="m 18.815,11.413 c 0,-0.819 -0.256,-1.494 -0.769,-2.025 L 18.655,8.693 18.151,8.248 17.519,8.974 C 17.056,8.704 16.54,8.567 15.97,8.564 c -0.798,0 -1.472,0.261 -2.021,0.781 -0.549,0.52 -0.823,1.209 -0.823,2.066 0,0.857 0.274,1.546 0.823,2.066 0.549,0.52 1.223,0.781 2.021,0.781 0.799,0 1.473,-0.26 2.021,-0.779 0.549,-0.519 0.824,-1.208 0.824,-2.066 z m -0.792,0.016 c 0,0.655 -0.197,1.179 -0.591,1.57 -0.395,0.392 -0.882,0.587 -1.462,0.587 -0.58,0 -1.067,-0.195 -1.461,-0.587 -0.394,-0.391 -0.591,-0.915 -0.591,-1.57 0,-0.651 0.197,-1.173 0.591,-1.567 0.394,-0.394 0.881,-0.591 1.461,-0.591 0.383,0 0.734,0.089 1.054,0.269 l -0.465,0.527 0.504,0.448 0.472,-0.542 c 0.325,0.396 0.488,0.881 0.488,1.456 z" id="path38" style="fill:#e6e6e6;fill-opacity:1;fill-rule:nonzero;stroke:none"/></g></g><g id="g40"><g id="g42"><path d="M 23.486,10.227 C 23.486,9.738 23.29,9.336 22.897,9.021 22.593,8.782 22.128,8.662 21.504,8.662 l -1.787,0 0,5.514 1.486,0 c 0.601,0 1.037,-0.088 1.308,-0.262 0.395,-0.255 0.593,-0.628 0.593,-1.12 0,-0.283 -0.08,-0.537 -0.24,-0.761 -0.16,-0.223 -0.36,-0.372 -0.599,-0.444 l 0,-0.02 c 0.377,-0.081 0.675,-0.235 0.893,-0.464 0.219,-0.229 0.328,-0.522 0.328,-0.878 z m -1.159,2.478 c 0,0.335 -0.122,0.571 -0.367,0.706 -0.182,0.101 -0.434,0.151 -0.757,0.148 l -0.714,0 0,-1.748 0.648,0 c 0.401,0 0.675,0.056 0.823,0.168 0.245,0.179 0.367,0.421 0.367,0.726 z m 0.363,-2.443 c 0,0.325 -0.134,0.577 -0.402,0.757 -0.198,0.133 -0.52,0.199 -0.967,0.199 l -0.832,0 0,-1.924 0.832,0 c 0.457,0 0.78,0.064 0.967,0.191 0.268,0.182 0.402,0.441 0.402,0.777 z" id="path44" style="fill:#e6e6e6;fill-opacity:1;fill-rule:nonzero;stroke:none"/></g></g><g id="g46"><g id="g48"><path d="m 30.366,14.176 0.816,0 -1.588,-5.522 -0.761,0 -1.327,4.46 -1.319,-4.46 -0.757,0 -1.592,5.522 0.816,0 1.19,-4.347 1.272,4.347 0.792,0 1.268,-4.347 1.19,4.347 z" id="path50" style="fill:#e6e6e6;fill-opacity:1;fill-rule:nonzero;stroke:none"/></g></g></g></g></g></g></svg>