<?xml version="1.0" ?><svg height="56.25" id="svg2" version="1.1" width="56.25" xml:space="preserve" xmlns="http://www.w3.org/2000/svg" xmlns:cc="http://creativecommons.org/ns#" xmlns:dc="http://purl.org/dc/elements/1.1/" xmlns:inkscape="http://www.inkscape.org/namespaces/inkscape" xmlns:rdf="http://www.w3.org/1999/02/22-rdf-syntax-ns#" xmlns:svg="http://www.w3.org/2000/svg"><defs id="defs6"><clipPath id="clipPath16"><path d="M 0,0 0,45 45,45 45,0 0,0" id="path18"/></clipPath></defs><g id="g10" transform="matrix(1.25,0,0,-1.25,0,56.25)"><g id="g12"><g clip-path="url(#clipPath16)" id="g14"><g id="g20"><g id="g22"><g id="g24"><path d="m 9.347,6.027 0,32.946 c 0,0.843 0.684,1.527 1.527,1.527 l 13.349,0 11.43,-11.43 0,-23.043 C 35.653,5.184 34.969,4.5 34.126,4.5 l -23.252,0 c -0.843,0 -1.527,0.684 -1.527,1.527 z" id="path26" style="fill:#2b2b2b;fill-opacity:1;fill-rule:evenodd;stroke:none"/></g></g><g id="g28"><g id="g30"><path d="m 24.223,40.5 11.43,-11.43 -9.903,0 c -0.843,0 -1.527,0.684 -1.527,1.527 l 0,9.903 z" id="path32" style="fill:#525252;fill-opacity:1;fill-rule:evenodd;stroke:none"/></g></g><g id="g34"><g id="g36"><path d="m 15.604,11.117 1.572,-2.455 -0.936,0 -1.436,2.373 -0.593,0 0,-2.373 -0.773,0 0,5.514 1.557,0 c 0.559,0 1.001,-0.127 1.327,-0.382 0.356,-0.289 0.534,-0.678 0.534,-1.167 0,-0.442 -0.123,-0.788 -0.371,-1.038 -0.247,-0.25 -0.541,-0.407 -0.881,-0.472 z m 0.452,1.494 c 0,0.325 -0.117,0.57 -0.351,0.734 -0.182,0.133 -0.49,0.199 -0.925,0.199 l -0.569,0 0,-1.869 0.569,0 c 0.437,0 0.746,0.064 0.925,0.191 0.234,0.177 0.351,0.425 0.351,0.745 z" id="path38" style="fill:#e6e6e6;fill-opacity:1;fill-rule:nonzero;stroke:none"/></g></g><g id="g40"><g id="g42"><path d="m 20.076,14.192 2.251,-5.53 -0.862,0 -0.566,1.44 -2.369,0 -0.565,-1.44 -0.816,0 2.248,5.53 0.679,0 z m -1.327,-3.442 1.931,0 -0.967,2.474 -0.964,-2.474 z" id="path44" style="fill:#e6e6e6;fill-opacity:1;fill-rule:nonzero;stroke:none"/></g></g><g id="g46"><g id="g48"><path d="m 25.11,11.117 1.572,-2.455 -0.936,0 -1.436,2.373 -0.593,0 0,-2.373 -0.773,0 0,5.514 1.557,0 c 0.559,0 1.001,-0.127 1.327,-0.382 0.356,-0.289 0.534,-0.678 0.534,-1.167 0,-0.442 -0.123,-0.788 -0.371,-1.038 -0.247,-0.25 -0.541,-0.407 -0.881,-0.472 z m 0.452,1.494 c 0,0.325 -0.117,0.57 -0.351,0.734 -0.182,0.133 -0.49,0.199 -0.925,0.199 l -0.569,0 0,-1.869 0.569,0 c 0.437,0 0.746,0.064 0.925,0.191 0.234,0.177 0.351,0.425 0.351,0.745 z" id="path50" style="fill:#e6e6e6;fill-opacity:1;fill-rule:nonzero;stroke:none"/></g></g><g id="g52"><g id="g54"><path d="m 63.299,5.495 0,31.894 c 0,0.816 0.663,1.478 1.478,1.478 l 12.923,0 11.065,-11.065 0,-22.307 c 0,-0.816 -0.662,-1.478 -1.479,-1.478 l -22.509,0 c -0.815,0 -1.478,0.662 -1.478,1.478 z" id="path56" style="fill:none;stroke:#2b2b2b;stroke-width:1.148;stroke-linecap:butt;stroke-linejoin:miter;stroke-miterlimit:10;stroke-opacity:1;stroke-dasharray:none"/></g></g><g id="g58"><g id="g60"><path d="m 69.358,10.427 1.522,-2.376 -0.907,0 -1.39,2.297 -0.574,0 0,-2.297 -0.748,0 0,5.338 1.507,0 c 0.542,0 0.97,-0.124 1.285,-0.37 0.345,-0.28 0.517,-0.656 0.517,-1.13 0,-0.428 -0.119,-0.763 -0.359,-1.005 -0.239,-0.241 -0.524,-0.394 -0.853,-0.457 z m 0.438,1.447 c 0,0.315 -0.113,0.552 -0.34,0.71 -0.176,0.129 -0.475,0.193 -0.895,0.193 l -0.552,0 0,-1.81 0.552,0 c 0.423,0 0.721,0.062 0.895,0.186 0.227,0.171 0.34,0.411 0.34,0.721 z" id="path62" style="fill:#2b2b2b;fill-opacity:1;fill-rule:nonzero;stroke:none"/></g></g></g></g></g></g></svg>