<?xml version="1.0" ?><svg height="56.25" id="svg2" version="1.1" width="56.25" xml:space="preserve" xmlns="http://www.w3.org/2000/svg" xmlns:cc="http://creativecommons.org/ns#" xmlns:dc="http://purl.org/dc/elements/1.1/" xmlns:inkscape="http://www.inkscape.org/namespaces/inkscape" xmlns:rdf="http://www.w3.org/1999/02/22-rdf-syntax-ns#" xmlns:svg="http://www.w3.org/2000/svg"><defs id="defs6"><clipPath id="clipPath16"><path d="M 0,0 0,45 45,45 45,0 0,0" id="path18"/></clipPath></defs><g id="g10" transform="matrix(1.25,0,0,-1.25,0,56.25)"><g id="g12"><g clip-path="url(#clipPath16)" id="g14"><g id="g20"><g id="g22"><g id="g24"><path d="m 9.347,6.027 0,32.946 c 0,0.843 0.684,1.527 1.527,1.527 l 13.349,0 11.43,-11.43 0,-23.043 C 35.653,5.184 34.969,4.5 34.126,4.5 l -23.252,0 c -0.843,0 -1.527,0.684 -1.527,1.527 z" id="path26" style="fill:#2b2b2b;fill-opacity:1;fill-rule:evenodd;stroke:none"/></g></g><g id="g28"><g id="g30"><path d="m 24.223,40.5 11.43,-11.43 -9.903,0 c -0.843,0 -1.527,0.684 -1.527,1.527 l 0,9.903 z" id="path32" style="fill:#525252;fill-opacity:1;fill-rule:evenodd;stroke:none"/></g></g><g id="g34"><g id="g36"><path d="m 15.603,11.116 1.573,-2.454 -0.937,0 -1.436,2.372 -0.593,0 0,-2.372 -0.772,0 0,5.514 1.557,0 c 0.559,0 1.001,-0.128 1.326,-0.383 0.357,-0.289 0.535,-0.677 0.535,-1.166 0,-0.443 -0.124,-0.789 -0.371,-1.038 -0.247,-0.25 -0.541,-0.408 -0.882,-0.473 z m 0.453,1.495 c 0,0.325 -0.117,0.57 -0.351,0.734 -0.182,0.132 -0.491,0.198 -0.925,0.198 l -0.57,0 0,-1.869 0.57,0 c 0.437,0 0.745,0.064 0.925,0.192 0.234,0.176 0.351,0.425 0.351,0.745 z" id="path38" style="fill:#e6e6e6;fill-opacity:1;fill-rule:nonzero;stroke:none"/></g></g><g id="g40"><g id="g42"><path d="m 21.039,9.318 0,-0.656 -3.289,0 0,5.514 3.227,0 0,-0.648 -2.455,0 0,-1.647 2.318,0 0,-0.648 -2.318,0 0,-1.915 2.517,0 z" id="path44" style="fill:#e6e6e6;fill-opacity:1;fill-rule:nonzero;stroke:none"/></g></g><g id="g46"><g id="g48"><path d="M 25.363,10.195 C 25.363,9.712 25.171,9.312 24.786,8.998 24.434,8.709 23.984,8.564 23.435,8.564 23.212,8.564 23,8.596 22.801,8.658 22.602,8.72 22.426,8.809 22.271,8.923 22.116,9.038 21.998,9.133 21.918,9.21 21.837,9.287 21.75,9.381 21.656,9.493 l 0.453,0.519 c 0.158,-0.213 0.362,-0.398 0.61,-0.556 0.249,-0.157 0.512,-0.236 0.791,-0.236 0.309,0 0.566,0.084 0.77,0.252 0.204,0.168 0.307,0.393 0.307,0.677 0,0.132 -0.03,0.252 -0.088,0.359 -0.059,0.106 -0.148,0.198 -0.267,0.275 -0.12,0.077 -0.209,0.13 -0.268,0.16 -0.058,0.03 -0.149,0.068 -0.271,0.115 -0.432,0.172 -0.724,0.295 -0.878,0.371 -0.224,0.101 -0.408,0.231 -0.554,0.39 -0.239,0.249 -0.359,0.569 -0.359,0.96 0,0.426 0.168,0.78 0.503,1.061 0.325,0.271 0.75,0.407 1.272,0.41 0.601,0 1.128,-0.238 1.581,-0.714 l -0.406,-0.527 c -0.372,0.395 -0.777,0.593 -1.214,0.593 -0.283,0 -0.514,-0.067 -0.692,-0.201 -0.178,-0.134 -0.267,-0.323 -0.267,-0.568 0,-0.122 0.019,-0.23 0.058,-0.324 0.039,-0.093 0.098,-0.173 0.176,-0.24 0.078,-0.066 0.151,-0.118 0.22,-0.156 0.069,-0.037 0.154,-0.077 0.256,-0.119 l 1.014,-0.425 c 0.265,-0.122 0.474,-0.27 0.625,-0.445 0.223,-0.278 0.335,-0.588 0.335,-0.929 z" id="path50" style="fill:#e6e6e6;fill-opacity:1;fill-rule:nonzero;stroke:none"/></g></g><g id="g52"><g id="g54"><path d="m 28.461,11.507 1.83,-2.845 -0.936,0 -1.397,2.341 -1.389,-2.341 -0.929,0 1.823,2.845 -1.694,2.669 0.909,0 1.28,-2.15 1.288,2.15 0.909,0 -1.694,-2.669 z" id="path56" style="fill:#e6e6e6;fill-opacity:1;fill-rule:nonzero;stroke:none"/></g></g></g></g></g></g></svg>