<?xml version="1.0" ?><svg height="56.25" id="svg2" version="1.1" width="56.25" xml:space="preserve" xmlns="http://www.w3.org/2000/svg" xmlns:cc="http://creativecommons.org/ns#" xmlns:dc="http://purl.org/dc/elements/1.1/" xmlns:inkscape="http://www.inkscape.org/namespaces/inkscape" xmlns:rdf="http://www.w3.org/1999/02/22-rdf-syntax-ns#" xmlns:svg="http://www.w3.org/2000/svg"><defs id="defs6"><clipPath id="clipPath16"><path d="M 0,0 0,45 45,45 45,0 0,0" id="path18"/></clipPath></defs><g id="g10" transform="matrix(1.25,0,0,-1.25,0,56.25)"><g id="g12"><g clip-path="url(#clipPath16)" id="g14"><g id="g20"><g id="g22"><g id="g24"><path d="m 9.347,6.027 0,32.946 c 0,0.843 0.684,1.527 1.527,1.527 l 13.349,0 11.43,-11.43 0,-23.043 C 35.653,5.184 34.969,4.5 34.126,4.5 l -23.252,0 c -0.843,0 -1.527,0.684 -1.527,1.527 z" id="path26" style="fill:#2b2b2b;fill-opacity:1;fill-rule:evenodd;stroke:none"/></g></g><g id="g28"><g id="g30"><path d="m 24.223,40.5 11.43,-11.43 -9.903,0 c -0.843,0 -1.527,0.684 -1.527,1.527 l 0,9.903 z" id="path32" style="fill:#525252;fill-opacity:1;fill-rule:evenodd;stroke:none"/></g></g><g id="g34"><g id="g36"><path d="m 16.602,13.94 0,-0.62 -1.487,0 0,-4.658 -0.74,0 0,4.658 -1.494,0 0,0.62 3.721,0 z" id="path38" style="fill:#e6e6e6;fill-opacity:1;fill-rule:nonzero;stroke:none"/></g></g><g id="g40"><g id="g42"><path d="m 21.879,11.478 0,-2.05 c -0.57,-0.571 -1.317,-0.857 -2.241,-0.859 -0.765,0 -1.405,0.252 -1.92,0.758 -0.515,0.505 -0.773,1.164 -0.773,1.976 0,0.807 0.256,1.461 0.767,1.963 0.512,0.501 1.151,0.752 1.918,0.752 0.852,0 1.551,-0.294 2.096,-0.881 L 21.763,13.1 21.259,12.633 c -0.428,0.5 -0.971,0.75 -1.629,0.75 -0.555,0 -1.014,-0.187 -1.376,-0.562 -0.362,-0.375 -0.543,-0.881 -0.543,-1.518 0,-0.633 0.186,-1.138 0.558,-1.515 0.372,-0.377 0.841,-0.566 1.406,-0.566 0.638,0 1.115,0.142 1.431,0.426 l 0.052,0.056 0,1.169 -1.423,0 0,0.605 2.144,0 z" id="path44" style="fill:#e6e6e6;fill-opacity:1;fill-rule:nonzero;stroke:none"/></g></g><g id="g46"><g id="g48"><path d="m 25.181,13.955 2.155,-5.293 -0.825,0 -0.542,1.378 -2.267,0 -0.542,-1.378 -0.781,0 2.152,5.293 0.65,0 z m -1.27,-3.295 1.849,0 -0.926,2.369 -0.923,-2.369 z" id="path50" style="fill:#e6e6e6;fill-opacity:1;fill-rule:nonzero;stroke:none"/></g></g></g></g></g></g></svg>