<?xml version="1.0" ?><svg height="56.25" id="svg2" version="1.1" width="56.25" xml:space="preserve" xmlns="http://www.w3.org/2000/svg" xmlns:cc="http://creativecommons.org/ns#" xmlns:dc="http://purl.org/dc/elements/1.1/" xmlns:inkscape="http://www.inkscape.org/namespaces/inkscape" xmlns:rdf="http://www.w3.org/1999/02/22-rdf-syntax-ns#" xmlns:svg="http://www.w3.org/2000/svg"><defs id="defs6"><clipPath id="clipPath16"><path d="M 0,0 0,45 45,45 45,0 0,0" id="path18"/></clipPath></defs><g id="g10" transform="matrix(1.25,0,0,-1.25,0,56.25)"><g id="g12"><g clip-path="url(#clipPath16)" id="g14"><g id="g20"><g id="g22"><g id="g24"><path d="m 9.347,6.027 0,32.946 c 0,0.843 0.684,1.527 1.527,1.527 l 13.349,0 11.43,-11.43 0,-23.043 C 35.653,5.184 34.969,4.5 34.126,4.5 l -23.252,0 c -0.843,0 -1.527,0.684 -1.527,1.527 z" id="path26" style="fill:#2b2b2b;fill-opacity:1;fill-rule:evenodd;stroke:none"/></g></g><g id="g28"><g id="g30"><path d="m 24.223,40.5 11.43,-11.43 -9.903,0 c -0.843,0 -1.527,0.684 -1.527,1.527 l 0,9.903 z" id="path32" style="fill:#525252;fill-opacity:1;fill-rule:evenodd;stroke:none"/></g></g><g id="g34"><g id="g36"><path d="m 15.522,11.385 1.752,-2.723 -0.897,0 -1.337,2.241 -1.329,-2.241 -0.889,0 1.744,2.723 -1.621,2.555 0.87,0 1.225,-2.058 1.233,2.058 0.87,0 -1.621,-2.555 z" id="path38" style="fill:#e6e6e6;fill-opacity:1;fill-rule:nonzero;stroke:none"/></g></g><g id="g40"><g id="g42"><path d="m 20.064,13.955 2.155,-5.293 -0.825,0 -0.542,1.378 -2.267,0 -0.542,-1.378 -0.781,0 2.152,5.293 0.65,0 z m -1.27,-3.295 1.849,0 -0.926,2.369 -0.923,-2.369 z" id="path44" style="fill:#e6e6e6;fill-opacity:1;fill-rule:nonzero;stroke:none"/></g></g><g id="g46"><g id="g48"><path d="m 27.934,13.94 0.482,-5.278 -0.736,0 -0.343,4.168 -0.023,0 -1.613,-4.213 -0.422,0 -1.614,4.213 -0.022,0 -0.337,-4.168 -0.735,0 0.474,5.278 0.919,0 1.52,-4.075 0.019,0 1.52,4.075 0.911,0 z" id="path50" style="fill:#e6e6e6;fill-opacity:1;fill-rule:nonzero;stroke:none"/></g></g><g id="g52"><g id="g54"><path d="m 31.938,9.297 0,-0.635 -2.599,0 0,5.278 0.739,0 0,-4.643 1.86,0 z" id="path56" style="fill:#e6e6e6;fill-opacity:1;fill-rule:nonzero;stroke:none"/></g></g></g></g></g></g></svg>