<?xml version="1.0" ?><svg height="56.25" id="svg2" version="1.1" width="56.25" xml:space="preserve" xmlns="http://www.w3.org/2000/svg" xmlns:cc="http://creativecommons.org/ns#" xmlns:dc="http://purl.org/dc/elements/1.1/" xmlns:inkscape="http://www.inkscape.org/namespaces/inkscape" xmlns:rdf="http://www.w3.org/1999/02/22-rdf-syntax-ns#" xmlns:svg="http://www.w3.org/2000/svg"><defs id="defs6"><clipPath id="clipPath16"><path d="M 0,0 0,45 45,45 45,0 0,0" id="path18"/></clipPath></defs><g id="g10" transform="matrix(1.25,0,0,-1.25,0,56.25)"><g id="g12"><g clip-path="url(#clipPath16)" id="g14"><g id="g20"><g id="g22"><g id="g24"><path d="m 9.347,6.027 0,32.946 c 0,0.843 0.684,1.527 1.527,1.527 l 13.349,0 11.43,-11.43 0,-23.043 C 35.653,5.184 34.969,4.5 34.126,4.5 l -23.252,0 c -0.843,0 -1.527,0.684 -1.527,1.527 z" id="path26" style="fill:#2b2b2b;fill-opacity:1;fill-rule:evenodd;stroke:none"/></g></g><g id="g28"><g id="g30"><path d="m 24.223,40.5 11.43,-11.43 -9.903,0 c -0.843,0 -1.527,0.684 -1.527,1.527 l 0,9.903 z" id="path32" style="fill:#525252;fill-opacity:1;fill-rule:evenodd;stroke:none"/></g></g><g id="g34"><g id="g36"><path d="m 15.644,11.508 1.83,-2.846 -0.937,0 -1.397,2.342 -1.39,-2.342 -0.929,0 1.823,2.846 -1.694,2.67 0.91,0 1.28,-2.151 1.288,2.151 0.91,0 -1.694,-2.67 z" id="path38" style="fill:#e6e6e6;fill-opacity:1;fill-rule:nonzero;stroke:none"/></g></g><g id="g40"><g id="g42"><path d="m 20.781,9.326 0,-0.664 -2.717,0 0,5.516 0.773,0 0,-4.852 1.944,0 z" id="path44" style="fill:#e6e6e6;fill-opacity:1;fill-rule:nonzero;stroke:none"/></g></g><g id="g46"><g id="g48"><path d="m 24.841,10.196 c 0,-0.484 -0.193,-0.883 -0.578,-1.198 -0.351,-0.289 -0.802,-0.434 -1.351,-0.434 -0.223,0 -0.435,0.032 -0.634,0.094 -0.199,0.063 -0.376,0.151 -0.531,0.265 -0.155,0.115 -0.273,0.211 -0.353,0.287 -0.081,0.077 -0.168,0.172 -0.262,0.283 l 0.453,0.52 c 0.159,-0.214 0.363,-0.399 0.611,-0.557 0.249,-0.157 0.512,-0.236 0.79,-0.236 0.31,0 0.567,0.084 0.772,0.252 0.204,0.168 0.306,0.394 0.306,0.677 0,0.133 -0.029,0.253 -0.088,0.359 -0.058,0.107 -0.148,0.199 -0.267,0.276 -0.12,0.076 -0.209,0.13 -0.268,0.16 -0.058,0.03 -0.149,0.068 -0.271,0.115 -0.432,0.172 -0.725,0.295 -0.878,0.371 -0.224,0.101 -0.409,0.231 -0.555,0.39 -0.239,0.25 -0.359,0.57 -0.359,0.96 0,0.427 0.168,0.781 0.504,1.062 0.325,0.271 0.749,0.407 1.272,0.41 0.602,0 1.129,-0.238 1.581,-0.714 l -0.406,-0.527 c -0.372,0.395 -0.777,0.593 -1.214,0.593 -0.283,0 -0.514,-0.067 -0.693,-0.201 -0.178,-0.134 -0.267,-0.323 -0.267,-0.568 0,-0.122 0.019,-0.23 0.059,-0.324 0.039,-0.094 0.097,-0.174 0.175,-0.24 0.078,-0.066 0.152,-0.119 0.221,-0.156 0.069,-0.038 0.154,-0.078 0.255,-0.119 L 23.88,11.57 c 0.266,-0.122 0.474,-0.27 0.625,-0.445 0.224,-0.278 0.336,-0.588 0.336,-0.929 z" id="path50" style="fill:#e6e6e6;fill-opacity:1;fill-rule:nonzero;stroke:none"/></g></g><g id="g52"><g id="g54"><path d="m 27.941,11.508 1.83,-2.846 -0.937,0 -1.397,2.342 -1.39,-2.342 -0.929,0 1.823,2.846 -1.694,2.67 0.91,0 1.28,-2.151 1.288,2.151 0.91,0 -1.694,-2.67 z" id="path56" style="fill:#e6e6e6;fill-opacity:1;fill-rule:nonzero;stroke:none"/></g></g></g></g></g></g></svg>